<svg xmlns="http://www.w3.org/2000/svg" version="1.1" viewBox="1.549126148223877 1.6865739822387695 634.5017700195312 717.1221923828125" width="638.00" height="721.00">
<g stroke-width="2.00" fill="none" stroke-linecap="butt">
<path stroke="#141414" d="&#10;  M 216.85 63.08&#10;  Q 214.96 62.46 214.52 63.77&#10;  Q 214.34 64.29 214.87 64.44&#10;  Q 216.17 64.81 216.85 63.08"/>
<path stroke="#141414" d="&#10;  M 155.45 39.33&#10;  Q 155.06 40.01 154.59 40.33&#10;  A 1.36 1.35 -40.1 0 0 154.41 42.43&#10;  L 169.96 57.29&#10;  A 0.72 0.72 0.0 0 0 171.18 56.81&#10;  Q 171.61 49.16 170.61 39.97&#10;  C 170.33 37.35 170.65 32.47 172.19 30.48&#10;  Q 175.32 26.40 179.29 23.99&#10;  Q 180.11 23.49 179.17 23.32&#10;  Q 163.74 20.58 145.34 16.03&#10;  Q 140.67 14.88 137.23 13.78&#10;  Q 133.25 12.51 129.17 11.60&#10;  Q 126.79 11.08 128.28 13.00&#10;  C 131.71 17.46 137.48 23.21 140.01 26.50&#10;  Q 140.63 27.31 142.79 31.08&#10;  C 144.08 33.33 146.14 35.96 148.56 37.07&#10;  Q 149.06 37.29 151.17 37.20&#10;  Q 153.47 37.10 155.27 38.48&#10;  Q 155.73 38.83 155.45 39.33"/>
<path stroke="#141414" d="&#10;  M 195.23 35.73&#10;  Q 193.07 30.71 184.41 27.27&#10;  Q 184.09 27.15 184.12 27.48&#10;  L 184.16 27.97&#10;  A 0.20 0.19 13.8 0 0 184.25 28.11&#10;  Q 188.22 30.49 191.29 32.47&#10;  Q 192.95 33.54 193.63 35.39&#10;  Q 194.30 37.21 195.11 36.37&#10;  A 0.58 0.57 -34.5 0 0 195.23 35.73"/>
<path stroke="#141414" d="&#10;  M 214.87 104.51&#10;  A 0.46 0.46 0.0 0 0 215.31 105.14&#10;  Q 216.13 105.11 216.97 104.72&#10;  Q 227.18 99.86 238.46 96.38&#10;  C 243.27 94.90 248.05 94.28 252.32 92.98&#10;  Q 256.85 91.60 262.65 90.21&#10;  Q 277.62 86.62 279.07 86.20&#10;  Q 281.80 85.40 282.88 85.16&#10;  Q 294.79 82.48 299.13 81.63&#10;  Q 309.14 79.68 315.39 78.22&#10;  Q 327.98 75.29 332.25 74.51&#10;  Q 342.30 72.67 349.22 71.29&#10;  Q 358.29 69.49 366.22 68.38&#10;  Q 386.69 65.52 398.78 64.30&#10;  Q 400.07 64.17 399.23 63.19&#10;  Q 395.07 58.27 392.12 55.56&#10;  Q 391.00 54.53 386.86 51.34&#10;  C 383.84 49.01 381.56 45.93 377.90 44.53&#10;  Q 374.19 43.10 364.69 38.69&#10;  Q 357.89 35.53 349.65 33.28&#10;  Q 341.28 30.99 333.98 30.31&#10;  Q 316.34 28.66 299.81 31.85&#10;  Q 292.56 33.26 285.07 36.33&#10;  Q 271.43 41.93 259.29 50.03&#10;  Q 257.54 51.20 255.41 53.50&#10;  C 252.58 56.54 250.21 58.22 246.58 60.82&#10;  C 243.86 62.77 241.57 67.09 238.97 69.55&#10;  Q 234.56 73.73 233.05 75.79&#10;  Q 225.98 85.46 219.92 94.58&#10;  C 217.98 97.51 216.23 101.05 214.87 104.51"/>
<path stroke="#141414" d="&#10;  M 195.64 45.71&#10;  L 198.28 45.79&#10;  A 0.30 0.30 0.0 0 0 198.59 45.50&#10;  L 198.59 45.29&#10;  A 13.85 1.50 -88.3 0 0 197.50 31.40&#10;  L 197.26 31.39&#10;  A 13.85 1.50 -88.3 0 0 195.35 45.19&#10;  L 195.35 45.40&#10;  A 0.30 0.30 0.0 0 0 195.64 45.71"/>
<path stroke="#141414" d="&#10;  M 181.99 39.07&#10;  C 183.30 38.83 184.61 40.02 186.04 40.94&#10;  Q 186.45 41.20 186.94 41.16&#10;  L 192.88 40.66&#10;  A 1.06 1.06 0.0 0 0 193.57 38.89&#10;  Q 192.25 37.46 189.73 38.52&#10;  Q 188.21 39.17 187.59 39.37&#10;  Q 187.11 39.53 186.64 39.31&#10;  Q 183.11 37.68 179.84 37.92&#10;  Q 177.77 38.07 178.08 39.76&#10;  A 0.89 0.88 -25.8 0 0 179.53 40.26&#10;  Q 180.62 39.32 181.99 39.07"/>
<path stroke="#141414" d="&#10;  M 179.93 47.19&#10;  A 1.03 1.03 0.0 0 1 179.22 45.55&#10;  Q 180.76 43.49 180.57 41.85&#10;  A 1.23 1.01 79.8 0 0 179.28 40.75&#10;  L 178.68 40.91&#10;  Q 177.53 41.23 177.53 42.42&#10;  L 177.53 48.28&#10;  A 0.75 0.74 -90.0 0 0 178.27 49.03&#10;  L 182.75 49.03&#10;  Q 183.28 49.03 183.71 48.71&#10;  L 186.81 46.43&#10;  A 0.80 0.75 68.2 0 0 187.10 45.69&#10;  Q 186.96 44.87 186.47 43.42&#10;  Q 186.16 42.48 186.08 43.44&#10;  L 186.01 44.21&#10;  Q 185.97 44.64 185.57 45.04&#10;  Q 183.05 47.56 179.93 47.19"/>
<path stroke="#141414" d="&#10;  M 112.61 94.37&#10;  Q 114.10 94.32 115.78 95.56&#10;  A 1.50 1.47 64.8 0 0 116.56 95.85&#10;  Q 118.64 95.96 120.78 94.76&#10;  Q 128.07 90.70 132.53 87.83&#10;  Q 136.69 85.17 138.88 84.22&#10;  Q 141.19 83.21 145.42 80.96&#10;  Q 150.07 78.47 155.55 76.83&#10;  Q 167.22 73.33 179.75 72.68&#10;  Q 182.13 72.56 189.97 71.24&#10;  Q 194.25 70.52 197.42 69.06&#10;  Q 201.36 67.25 205.41 65.71&#10;  Q 205.57 65.65 205.55 65.49&#10;  L 205.52 65.12&#10;  Q 205.51 64.97 205.36 65.00&#10;  C 200.64 65.86 195.99 67.69 191.47 68.35&#10;  Q 181.66 69.79 177.50 69.56&#10;  Q 165.00 68.86 161.25 69.12&#10;  Q 144.80 70.27 132.82 71.20&#10;  C 129.39 71.47 125.53 72.19 122.60 72.66&#10;  C 116.95 73.58 110.69 73.85 105.48 74.38&#10;  Q 99.23 75.01 96.04 74.96&#10;  Q 88.11 74.81 86.55 74.77&#10;  Q 84.68 74.72 86.10 75.94&#10;  Q 89.47 78.80 92.46 81.95&#10;  Q 94.37 83.97 97.46 85.60&#10;  C 101.85 87.91 106.45 90.99 110.65 94.41&#10;  Q 111.29 94.94 111.93 96.10&#10;  Q 112.58 97.27 113.00 97.49&#10;  Q 116.28 99.19 114.24 96.06&#10;  Q 113.89 95.51 112.51 94.82&#10;  Q 111.68 94.40 112.61 94.37"/>
<path stroke="#141414" d="&#10;  M 448.79 134.14&#10;  Q 449.55 134.15 450.11 133.95&#10;  A 0.30 0.30 0.0 0 0 450.12 133.39&#10;  Q 435.70 127.44 425.19 122.66&#10;  Q 421.83 121.14 413.46 119.37&#10;  Q 408.71 118.37 401.44 116.57&#10;  Q 390.39 113.84 383.27 112.86&#10;  Q 350.11 108.30 320.00 106.78&#10;  Q 311.66 106.35 311.16 106.31&#10;  Q 306.19 105.87 302.32 105.79&#10;  Q 267.54 105.01 234.75 105.24&#10;  Q 231.63 105.27 216.66 106.02&#10;  C 214.75 106.12 213.66 106.73 212.78 108.31&#10;  Q 208.79 115.49 206.27 121.23&#10;  C 204.86 124.45 204.27 127.51 203.27 131.78&#10;  Q 202.52 134.97 200.94 139.66&#10;  Q 199.92 142.70 199.37 148.27&#10;  Q 199.15 150.58 199.48 151.61&#10;  A 0.69 0.69 0.0 0 0 200.30 152.08&#10;  Q 203.24 151.40 207.06 151.22&#10;  Q 218.61 150.68 227.57 149.56&#10;  Q 238.47 148.20 261.11 147.34&#10;  Q 265.47 147.18 273.43 146.63&#10;  Q 279.75 146.19 285.77 145.65&#10;  Q 293.14 144.99 304.28 144.87&#10;  Q 356.76 144.27 390.35 143.95&#10;  Q 393.66 143.92 400.03 143.67&#10;  Q 402.87 143.55 409.73 143.44&#10;  C 414.04 143.37 416.55 142.82 421.81 141.80&#10;  Q 425.56 141.08 430.60 139.19&#10;  Q 436.71 136.90 444.40 134.90&#10;  Q 447.37 134.13 448.79 134.14"/>
<path stroke="#7e7e7f" d="&#10;  M 293.60 184.45&#10;  L 292.96 183.94&#10;  Q 292.55 183.61 292.23 184.02&#10;  Q 286.89 190.81 280.47 196.26"/>
<path stroke="#141414" d="&#10;  M 280.47 196.26&#10;  Q 276.06 199.67 270.84 201.30&#10;  Q 270.35 201.45 270.10 201.90&#10;  Q 269.44 203.07 268.21 203.43&#10;  Q 267.57 203.62 268.21 203.81&#10;  L 268.87 204.01"/>
<path stroke="#7d7f5e" d="&#10;  M 268.87 204.01&#10;  Q 268.54 203.91 268.22 204.00"/>
<path stroke="#4a4e50" d="&#10;  M 268.22 204.00&#10;  Q 266.69 203.64 265.43 204.20&#10;  Q 264.72 204.51 265.49 204.49&#10;  L 268.28 204.40"/>
<path stroke="#7d7f5e" d="&#10;  M 268.28 204.40&#10;  Q 269.02 204.93 269.99 205.05&#10;  C 274.78 205.64 278.89 205.75 283.27 206.59&#10;  Q 290.16 207.90 298.19 208.62&#10;  Q 300.68 208.85 307.90 210.24&#10;  Q 312.71 211.17 317.55 211.59&#10;  Q 329.50 212.64 345.77 213.23&#10;  Q 352.42 213.48 358.27 212.91&#10;  Q 361.59 212.58 370.71 211.91&#10;  Q 377.95 211.38 386.72 209.28&#10;  Q 394.63 207.38 402.47 205.16"/>
<path stroke="#141414" d="&#10;  M 402.47 205.16&#10;  Q 403.81 205.45 404.73 204.93&#10;  Q 405.20 204.67 404.81 204.29&#10;  L 403.71 203.24&#10;  Q 403.27 202.82 403.35 202.21&#10;  Q 403.70 199.65 402.01 197.94&#10;  Q 401.61 197.53 401.17 197.89&#10;  Q 400.04 198.83 399.82 201.21"/>
<path stroke="#7d7f5e" d="&#10;  M 399.82 201.21&#10;  Q 398.65 200.88 397.91 201.04&#10;  A 0.64 0.64 0.0 0 1 397.21 200.70&#10;  Q 397.11 200.49 397.27 200.22"/>
<path stroke="#7e7e7f" d="&#10;  M 397.27 200.22&#10;  C 398.61 198.97 399.46 197.12 400.05 195.52&#10;  Q 400.51 194.27 399.85 193.44&#10;  Q 394.88 187.20 386.57 187.88"/>
<path stroke="#7d7f5e" d="&#10;  M 386.57 187.88&#10;  L 379.96 187.64&#10;  Q 379.55 187.62 379.38 187.24&#10;  Q 379.31 187.10 379.32 186.94&#10;  Q 379.33 186.74 379.47 186.59&#10;  L 380.42 185.60&#10;  Q 380.94 185.06 380.19 185.16&#10;  Q 374.80 185.88 366.71 186.46&#10;  C 363.78 186.66 361.11 187.39 358.14 187.16&#10;  Q 355.83 186.97 357.74 185.66&#10;  Q 362.59 182.31 367.92 179.71&#10;  Q 377.29 175.12 378.46 174.48&#10;  Q 383.75 171.57 389.01 168.61&#10;  C 391.82 167.03 394.87 166.70 397.81 165.09&#10;  Q 404.08 161.66 408.83 159.51&#10;  Q 409.73 159.10 408.77 158.88&#10;  Q 408.00 158.71 406.50 158.68&#10;  Q 377.17 158.03 283.00 158.63&#10;  Q 272.11 158.70 268.73 158.95&#10;  Q 268.29 158.99 268.40 159.41&#10;  A 0.53 0.49 2.9 0 0 268.73 159.75&#10;  Q 273.32 161.27 280.20 164.68&#10;  Q 285.55 167.33 288.69 168.54&#10;  Q 294.97 170.97 296.91 172.50&#10;  Q 301.76 176.36 309.01 179.89&#10;  C 310.96 180.84 314.02 180.72 316.01 180.68&#10;  A 1.62 1.62 0.0 0 1 317.48 183.03&#10;  L 315.54 186.88&#10;  A 2.10 2.08 -75.7 0 1 313.61 188.04&#10;  Q 310.86 187.98 307.56 187.14&#10;  Q 306.49 186.86 301.76 186.41&#10;  Q 297.56 186.00 293.60 184.45"/>
<path stroke="#c7ccae" d="&#10;  M 386.57 187.88&#10;  Q 385.39 188.02 384.80 189.25&#10;  Q 384.45 189.97 385.28 190.12"/>
<path stroke="#fbfddd" d="&#10;  M 385.28 190.12&#10;  Q 384.53 191.52 385.36 193.42&#10;  Q 387.04 197.30 390.48 198.84&#10;  Q 391.52 199.31 393.84 199.63&#10;  Q 395.54 199.86 397.27 200.22"/>
<path stroke="#919372" d="&#10;  M 399.82 201.21&#10;  Q 401.02 201.75 402.18 203.32&#10;  Q 402.98 204.40 402.47 205.16"/>
<path stroke="#c7ccae" d="&#10;  M 268.28 204.40&#10;  L 268.22 204.00"/>
<path stroke="#919372" d="&#10;  M 268.87 204.01&#10;  Q 277.18 203.59 283.13 200.59&#10;  Q 286.21 199.04 291.33 194.37"/>
<path stroke="#fbfddd" d="&#10;  M 291.33 194.37&#10;  Q 291.88 193.08 292.39 191.72&#10;  Q 292.86 190.46 293.03 188.95&#10;  Q 293.30 186.72 293.60 184.45"/>
<path stroke="#929293" d="&#10;  M 291.33 194.37&#10;  L 283.25 198.91&#10;  A 2.12 1.95 71.8 0 1 280.32 197.27&#10;  Q 280.29 197.05 280.47 196.26"/>
<path stroke="#c8ccce" d="&#10;  M 385.28 190.12&#10;  Q 386.29 189.34 386.57 187.88"/>
<path stroke="#141414" d="&#10;  M 427.39 159.86&#10;  L 425.51 160.15&#10;  Q 423.58 160.44 425.36 161.28&#10;  Q 425.84 161.51 426.83 161.46&#10;  A 0.87 0.86 -77.7 0 0 427.57 160.98&#10;  L 427.83 160.46&#10;  A 0.42 0.42 0.0 0 0 427.39 159.86"/>
<path stroke="#7d7f5e" d="&#10;  M 227.79 162.48&#10;  L 202.33 164.35"/>
<path stroke="#7f3a13" d="&#10;  M 202.33 164.35&#10;  L 195.14 165.20&#10;  A 0.67 0.66 -86.9 0 0 194.56 165.73&#10;  Q 192.67 174.34 194.64 182.77&#10;  Q 195.22 185.24 196.78 186.19&#10;  Q 198.97 187.52 202.59 187.88"/>
<path stroke="#7d7f5e" d="&#10;  M 202.59 187.88&#10;  Q 210.58 190.32 219.24 192.23&#10;  Q 221.02 192.62 227.42 193.65"/>
<path stroke="#7e7e7f" d="&#10;  M 227.42 193.65&#10;  Q 242.97 198.13 258.94 200.86&#10;  Q 260.73 201.16 261.58 200.86&#10;  Q 262.70 200.47 264.31 200.95&#10;  Q 264.88 201.12 264.46 200.69&#10;  L 258.22 194.27"/>
<path stroke="#4a4e50" d="&#10;  M 258.22 194.27&#10;  Q 256.90 191.04 255.63 188.19&#10;  C 254.68 186.07 254.80 183.77 254.51 182.05&#10;  Q 254.44 181.63 254.13 181.35&#10;  Q 253.81 181.06 253.78 180.99&#10;  Q 253.54 180.51 254.48 180.56&#10;  Q 257.60 180.71 259.86 178.64&#10;  Q 260.23 178.29 259.76 178.09&#10;  Q 255.32 176.24 253.16 179.89&#10;  Q 252.88 180.35 252.93 180.87&#10;  L 253.46 187.16&#10;  Q 253.50 187.63 253.14 187.94&#10;  Q 252.49 188.48 252.28 187.65"/>
<path stroke="#7e7e7f" d="&#10;  M 252.28 187.65&#10;  Q 251.40 188.67 250.92 189.17&#10;  Q 249.29 190.88 247.92 189.11&#10;  Q 247.37 188.40 247.00 187.60&#10;  Q 246.70 186.93 247.02 185.92&#10;  Q 248.58 181.03 253.88 177.71"/>
<path stroke="#4a4e50" d="&#10;  M 253.88 177.71&#10;  L 259.00 173.40&#10;  Q 259.69 172.82 259.04 172.20&#10;  L 256.48 169.75&#10;  Q 255.58 168.89 254.84 169.89&#10;  Q 253.91 171.14 252.46 171.46"/>
<path stroke="#7e7e7f" d="&#10;  M 252.46 171.46&#10;  Q 251.97 169.73 251.41 169.32&#10;  Q 247.16 166.23 243.58 162.54&#10;  A 3.83 3.79 65.4 0 0 240.53 161.39&#10;  L 227.79 162.48"/>
<path stroke="#c8ccce" d="&#10;  M 252.46 171.46&#10;  Q 252.27 174.04 253.88 177.71"/>
<path stroke="#c8ccce" d="&#10;  M 252.28 187.65&#10;  Q 254.67 193.44 258.22 194.27"/>
<path stroke="#fbfddd" d="&#10;  M 227.42 193.65&#10;  Q 225.98 186.26 226.54 179.01&#10;  Q 227.18 170.74 227.79 162.48"/>
<path stroke="#fcb871" d="&#10;  M 202.59 187.88&#10;  Q 200.85 182.71 200.70 179.50&#10;  Q 200.38 172.60 202.33 164.35"/>
<path stroke="#4a4e50" d="&#10;  M 427.74 173.92&#10;  C 426.19 172.39 424.25 169.68 421.71 170.95&#10;  Q 419.18 172.21 418.60 175.43"/>
<path stroke="#7e7e7f" d="&#10;  M 418.60 175.43&#10;  Q 418.66 178.55 420.58 180.12&#10;  Q 421.32 180.71 423.23 181.14&#10;  Q 424.54 181.43 426.03 181.92"/>
<path stroke="#7d7f5e" d="&#10;  M 426.03 181.92&#10;  Q 427.01 182.01 427.61 182.63&#10;  Q 427.98 183.00 427.89 183.52&#10;  L 427.42 186.29"/>
<path stroke="#7e7e7f" d="&#10;  M 427.42 186.29&#10;  C 425.71 190.53 423.04 193.19 419.58 196.09&#10;  C 417.27 198.03 415.05 201.23 412.64 202.65&#10;  Q 409.61 204.43 409.50 204.58&#10;  Q 409.15 205.06 409.68 205.11&#10;  Q 411.65 205.28 412.46 204.95&#10;  Q 417.37 202.97 422.53 202.06"/>
<path stroke="#7d7f5e" d="&#10;  M 422.53 202.06&#10;  L 427.16 200.33"/>
<path stroke="#7e7e7f" d="&#10;  M 427.16 200.33&#10;  L 442.50 196.15"/>
<path stroke="#4a4e50" d="&#10;  M 442.50 196.15&#10;  Q 452.88 194.04 453.06 184.24&#10;  Q 453.10 182.15 453.09 177.50&#10;  Q 453.08 172.44 451.05 166.15&#10;  C 450.76 165.25 450.84 164.30 450.66 163.39&#10;  Q 450.56 162.90 450.07 162.77&#10;  Q 447.52 162.07 444.67 162.47"/>
<path stroke="#7d7f5e" d="&#10;  M 444.67 162.47&#10;  L 429.20 163.05&#10;  A 0.52 0.52 0.0 0 0 428.86 163.95&#10;  Q 430.18 165.20 430.67 167.25&#10;  Q 431.07 168.92 429.28 173.63&#10;  Q 429.09 174.13 428.56 174.13&#10;  Q 428.20 174.13 427.74 173.92"/>
<path stroke="#c7ccae" d="&#10;  M 444.67 162.47&#10;  Q 446.10 163.22 446.83 164.40&#10;  Q 447.89 166.11 449.39 168.41&#10;  A 1.52 1.51 -22.5 0 1 448.43 170.72&#10;  Q 445.69 171.30 446.20 174.23"/>
<path stroke="#fbfddd" d="&#10;  M 446.20 174.23&#10;  Q 441.70 169.62 435.11 169.60&#10;  A 1.87 1.87 0.0 0 0 433.34 172.08&#10;  Q 434.30 174.83 432.79 177.17&#10;  C 432.04 178.34 429.90 179.46 429.46 181.22&#10;  A 1.50 1.44 40.2 0 0 429.56 182.16&#10;  Q 431.42 186.07 431.05 188.55&#10;  Q 430.55 191.82 427.16 200.33"/>
<path stroke="#fbfddd" d="&#10;  M 422.53 202.06&#10;  Q 423.65 200.17 423.71 197.97&#10;  Q 423.72 197.46 424.12 197.15&#10;  Q 429.40 193.07 428.66 186.06&#10;  Q 428.61 185.55 428.18 185.82&#10;  L 427.42 186.29"/>
<path stroke="#fbfddd" d="&#10;  M 426.03 181.92&#10;  Q 428.29 180.86 429.40 176.33&#10;  A 1.45 1.45 0.0 0 0 428.12 174.54&#10;  L 425.99 174.37"/>
<path stroke="#c7ccae" d="&#10;  M 425.99 174.37&#10;  L 427.74 173.92"/>
<path stroke="#c8ccce" d="&#10;  M 442.50 196.15&#10;  Q 447.72 185.18 446.20 174.23"/>
<path stroke="#c8ccce" d="&#10;  M 425.99 174.37&#10;  Q 421.98 174.31 418.60 175.43"/>
<path stroke="#7f3a13" d="&#10;  M 466.48 190.97&#10;  Q 472.03 190.17 477.31 188.41&#10;  Q 478.71 187.95 479.39 186.17&#10;  Q 481.30 181.24 481.37 177.31&#10;  Q 481.43 173.44 481.30 166.10&#10;  A 0.64 0.62 -84.9 0 0 480.80 165.49&#10;  Q 470.32 163.34 459.62 162.94"/>
<path stroke="#7e6533" d="&#10;  M 459.62 162.94&#10;  L 453.97 162.76&#10;  A 0.59 0.59 0.0 0 0 453.42 163.60&#10;  Q 454.94 166.78 455.18 170.76&#10;  Q 455.91 182.96 453.39 192.78&#10;  Q 453.12 193.83 454.18 193.60&#10;  L 466.48 190.97"/>
<path stroke="#fd9e45" d="&#10;  M 459.62 162.94&#10;  L 459.55 167.13&#10;  Q 459.55 167.67 460.03 167.91&#10;  Q 461.84 168.81 463.37 168.79&#10;  A 1.60 1.60 0.0 0 1 464.99 170.40&#10;  Q 464.90 181.15 466.48 190.97"/>
<path stroke="#4a4e50" d="&#10;  M 262.50 178.93&#10;  Q 260.10 179.76 258.32 180.92&#10;  A 1.05 1.05 0.0 0 0 258.53 182.78&#10;  Q 260.03 183.34 261.84 183.44&#10;  C 264.71 183.60 266.87 183.78 268.42 181.20&#10;  A 0.43 0.43 0.0 0 0 268.25 180.59&#10;  Q 267.57 180.25 265.43 179.33&#10;  Q 263.62 178.55 262.50 178.93"/>
<path stroke="#141414" d="&#10;  M 275.73 269.87&#10;  Q 284.24 272.97 292.54 272.95&#10;  Q 294.29 272.94 300.21 272.71&#10;  Q 305.13 272.51 307.83 272.10&#10;  Q 315.68 270.90 326.12 269.20&#10;  Q 332.57 268.16 335.59 267.21&#10;  C 342.82 264.94 347.65 263.79 353.78 261.44&#10;  Q 358.88 259.48 362.77 258.42&#10;  C 365.50 257.68 367.93 256.43 370.69 255.32&#10;  Q 374.37 253.86 376.57 252.76&#10;  Q 392.83 244.66 406.67 235.18&#10;  Q 408.87 233.67 406.22 233.86&#10;  Q 375.19 236.13 343.63 231.33&#10;  Q 336.14 230.19 327.63 228.13&#10;  Q 326.44 227.85 311.61 224.30&#10;  Q 307.53 223.32 296.00 220.03&#10;  Q 290.46 218.44 282.59 217.33&#10;  Q 276.36 216.44 270.16 214.28&#10;  Q 262.96 211.77 262.91 211.75&#10;  Q 255.79 209.37 243.89 206.70&#10;  Q 228.82 203.31 224.67 202.13&#10;  Q 214.19 199.14 200.59 194.48&#10;  Q 199.57 194.13 199.62 195.21&#10;  Q 199.64 195.89 200.09 197.00&#10;  Q 201.26 199.95 205.59 212.11&#10;  Q 207.82 218.39 210.20 222.49&#10;  C 214.26 229.48 218.69 238.57 224.80 245.17&#10;  C 226.98 247.53 228.42 250.22 230.10 252.87&#10;  Q 231.60 255.23 234.85 258.25&#10;  Q 238.83 261.95 242.24 266.19&#10;  C 243.70 268.00 245.93 269.69 247.77 271.06&#10;  Q 249.58 272.40 251.70 274.73&#10;  Q 255.50 278.91 260.42 282.27&#10;  C 262.52 283.70 263.76 285.43 265.62 287.45&#10;  Q 266.44 288.35 268.98 290.21&#10;  Q 274.27 294.09 277.72 297.91&#10;  Q 280.25 300.70 282.46 302.40&#10;  L 287.35 306.72&#10;  Q 290.99 309.94 294.55 313.50&#10;  Q 297.49 316.43 301.81 320.10&#10;  C 305.45 323.20 308.79 326.93 311.90 329.95&#10;  A 0.97 0.96 37.5 0 0 313.39 329.76&#10;  Q 315.74 325.89 319.29 323.03&#10;  Q 322.22 320.66 325.07 319.63&#10;  Q 329.62 318.00 329.71 317.96&#10;  Q 347.79 310.14 366.08 302.82&#10;  Q 371.71 300.57 381.44 294.77&#10;  Q 383.05 293.81 385.09 292.90&#10;  Q 387.71 291.73 388.71 290.96&#10;  Q 395.48 285.75 401.37 281.52&#10;  C 403.95 279.67 406.04 277.48 408.61 275.10&#10;  Q 411.39 272.54 407.86 273.90&#10;  Q 403.30 275.65 394.15 278.47&#10;  C 389.21 280.00 383.68 280.75 379.34 281.79&#10;  Q 374.78 282.88 368.09 283.67&#10;  Q 362.56 284.33 355.00 285.29&#10;  Q 352.74 285.58 337.33 285.61&#10;  Q 326.11 285.64 319.75 284.70&#10;  Q 306.88 282.81 294.78 279.64&#10;  C 288.46 277.98 280.36 273.62 275.80 271.40&#10;  A 0.98 0.98 0.0 0 1 275.29 270.82&#10;  L 275.16 270.44&#10;  Q 274.88 269.56 275.73 269.87"/>
<path stroke="#4a4e50" d="&#10;  M 160.1211 319.6037&#10;  A 1.00 0.36 25.7 0 0 159.3761 318.8456&#10;  A 1.00 0.36 25.7 0 0 158.3189 318.7363&#10;  A 1.00 0.36 25.7 0 0 159.0639 319.4944&#10;  A 1.00 0.36 25.7 0 0 160.1211 319.6037"/>
<path stroke="#141414" d="&#10;  M 354.46 332.15&#10;  Q 354.69 331.58 354.08 331.55&#10;  Q 351.48 331.45 350.63 331.63&#10;  Q 336.92 334.47 322.55 332.66&#10;  C 320.79 332.44 318.92 332.96 317.17 333.12&#10;  A 0.62 0.62 0.0 0 0 316.80 334.19&#10;  L 333.82 350.45&#10;  A 1.40 1.39 -45.1 0 0 335.76 350.44&#10;  Q 351.44 335.36 354.07 332.83&#10;  Q 354.27 332.64 354.46 332.15"/>
<path stroke="#78220b" d="&#10;  M 85.77 692.03&#10;  Q 88.35 693.06 90.57 693.31&#10;  Q 98.10 694.15 106.42 695.35&#10;  Q 115.39 696.64 122.21 697.27&#10;  Q 144.13 699.29 168.23 702.37&#10;  Q 189.68 705.11 211.26 706.27&#10;  Q 221.34 706.82 231.22 707.59&#10;  Q 245.97 708.74 260.26 708.98&#10;  C 264.12 709.05 268.92 709.50 273.28 709.56&#10;  Q 289.40 709.76 310.00 709.59&#10;  Q 317.62 709.53 357.75 706.19&#10;  Q 364.65 705.62 373.37 704.02&#10;  Q 378.93 703.01 386.19 702.30&#10;  Q 391.29 701.80 399.01 700.47&#10;  Q 415.89 697.55 428.72 695.18&#10;  Q 436.73 693.69 448.18 690.67&#10;  Q 463.36 686.67 479.68 683.18&#10;  Q 484.10 682.23 503.25 676.18&#10;  Q 505.42 675.49 508.87 674.64&#10;  C 513.67 673.46 519.14 671.33 522.85 670.52&#10;  C 526.90 669.64 530.42 668.86 534.45 667.33&#10;  Q 549.92 661.49 558.67 659.24&#10;  Q 561.24 658.58 561.62 658.49&#10;  Q 563.20 658.08 564.51 657.57&#10;  Q 578.69 651.96 596.06 645.56&#10;  C 598.12 644.80 601.17 644.16 603.43 643.19&#10;  Q 611.09 639.92 618.12 636.57&#10;  A 0.51 0.50 47.2 0 0 618.15 635.68&#10;  C 615.82 634.35 612.87 633.22 610.94 631.90&#10;  Q 601.53 625.45 597.17 622.69&#10;  Q 593.66 620.45 589.45 616.25&#10;  Q 584.16 610.98 581.87 608.95&#10;  C 578.12 605.63 576.00 601.67 572.87 598.28&#10;  Q 569.63 594.77 566.50 589.54&#10;  Q 559.81 578.38 558.29 575.82&#10;  Q 554.83 569.96 551.27 561.50&#10;  Q 545.52 547.82 544.40 543.85&#10;  Q 542.34 536.56 541.82 534.18&#10;  Q 540.50 528.04 536.89 505.07&#10;  Q 534.07 487.12 535.62 461.34&#10;  Q 536.04 454.30 537.56 446.33&#10;  Q 538.31 442.40 540.15 431.37&#10;  Q 540.23 430.85 539.72 430.76&#10;  Q 532.94 429.48 529.05 426.23&#10;  Q 524.58 422.49 520.67 417.07&#10;  Q 519.30 415.18 518.25 410.18"/>
<path stroke="#7f3a13" d="&#10;  M 518.25 410.18&#10;  Q 517.95 404.23 518.10 398.00&#10;  Q 518.16 395.50 517.94 393.01&#10;  Q 517.79 391.41 516.61 390.39&#10;  Q 514.15 388.25 511.53 386.44"/>
<path stroke="#7d7f5e" d="&#10;  M 511.53 386.44&#10;  C 508.45 383.73 504.60 379.54 503.61 375.53&#10;  Q 502.84 372.45 501.99 370.85&#10;  Q 500.44 367.90 500.01 363.80&#10;  Q 499.15 355.52 499.36 350.41&#10;  Q 499.41 349.37 498.37 349.38&#10;  Q 492.20 349.47 478.46 350.37&#10;  Q 465.33 351.23 458.55 351.48&#10;  Q 427.95 352.59 398.09 352.74&#10;  Q 388.20 352.79 378.91 353.11&#10;  Q 373.05 353.31 359.72 353.32&#10;  Q 359.21 353.32 358.83 353.64&#10;  Q 352.27 359.11 351.33 360.34&#10;  Q 348.43 364.13 345.73 366.03&#10;  Q 343.98 367.27 342.34 369.53&#10;  Q 340.94 371.46 338.68 373.17&#10;  Q 338.28 373.46 337.94 373.11&#10;  Q 332.71 367.61 328.34 361.17&#10;  C 326.55 358.54 324.20 356.62 322.58 354.41&#10;  C 321.39 352.77 320.69 352.87 318.50 352.74&#10;  Q 311.33 352.34 301.84 351.89&#10;  Q 292.64 351.46 285.20 350.90&#10;  Q 259.47 348.98 234.49 347.78&#10;  Q 227.29 347.44 214.53 346.52&#10;  Q 205.42 345.86 190.13 344.88&#10;  Q 182.83 344.42 176.13 342.26&#10;  Q 175.29 341.99 175.39 342.87&#10;  Q 175.71 345.65 176.15 352.06&#10;  C 176.36 355.18 175.80 357.63 175.59 360.82&#10;  C 175.37 364.11 174.29 367.48 172.58 370.87&#10;  Q 169.74 376.52 168.13 380.19&#10;  C 166.18 384.65 161.40 385.18 159.27 389.05&#10;  C 156.82 393.48 156.97 397.33 156.65 403.14&#10;  Q 156.54 405.32 154.60 412.31&#10;  Q 153.57 416.03 151.08 418.51&#10;  Q 143.14 426.42 133.09 428.02&#10;  Q 131.46 428.28 131.73 429.91&#10;  Q 132.52 434.56 133.24 436.89&#10;  Q 134.14 439.80 134.60 443.71&#10;  C 135.17 448.55 137.18 455.09 137.71 460.44&#10;  Q 138.85 471.79 139.91 478.26&#10;  Q 141.26 486.52 141.66 496.12&#10;  Q 142.46 515.46 142.30 528.77&#10;  Q 142.29 529.66 141.93 544.77&#10;  Q 141.66 556.03 141.32 560.75&#10;  Q 140.12 577.60 136.84 596.72&#10;  Q 135.71 603.32 133.30 613.20&#10;  Q 132.80 615.25 129.37 629.61&#10;  C 128.86 631.74 127.98 634.57 126.89 636.97&#10;  Q 123.31 644.84 120.59 652.15&#10;  C 119.18 655.93 117.55 658.64 115.59 662.36&#10;  C 113.76 665.84 110.37 668.84 108.68 671.69&#10;  Q 106.43 675.50 103.56 678.37&#10;  C 101.38 680.55 97.31 682.18 94.96 684.42&#10;  C 92.54 686.73 90.30 687.70 87.26 689.60&#10;  C 85.88 690.47 83.94 691.09 82.73 691.26&#10;  Q 80.47 691.58 82.71 692.02&#10;  Q 84.29 692.33 85.77 692.03"/>
<path stroke="#fcb871" d="&#10;  M 511.53 386.44&#10;  Q 508.81 390.73 505.79 394.66&#10;  C 503.85 397.19 503.54 400.56 502.24 403.38&#10;  Q 497.08 414.51 494.80 421.04&#10;  Q 493.34 425.21 488.27 442.14&#10;  C 485.73 450.66 484.32 458.89 482.17 467.82&#10;  C 481.03 472.55 480.76 476.99 479.85 481.56&#10;  Q 478.97 485.97 478.32 491.87&#10;  Q 475.97 513.29 475.67 516.53&#10;  Q 474.28 531.91 471.18 542.74&#10;  Q 468.92 550.62 467.96 554.99&#10;  Q 466.95 559.57 460.82 574.42&#10;  Q 459.70 577.13 456.63 582.68&#10;  Q 454.49 586.57 452.53 591.02&#10;  Q 451.79 592.71 445.44 600.93&#10;  Q 444.67 601.92 442.12 605.57&#10;  Q 440.58 607.76 438.56 610.06&#10;  Q 428.58 621.40 416.65 631.23&#10;  Q 412.86 634.35 410.20 636.08&#10;  Q 405.18 639.32 403.59 640.73&#10;  Q 400.69 643.30 394.40 646.53&#10;  Q 390.57 648.49 385.88 651.44&#10;  C 383.00 653.24 380.57 654.30 376.99 656.14&#10;  Q 373.47 657.95 370.13 659.25&#10;  Q 362.96 662.04 355.92 665.16&#10;  Q 350.88 667.39 339.16 671.01&#10;  Q 325.78 675.14 319.54 676.62&#10;  Q 316.08 677.44 313.78 678.21&#10;  Q 310.23 679.39 308.05 679.85&#10;  Q 295.64 682.44 279.09 685.15&#10;  Q 266.04 687.29 257.87 687.86&#10;  C 256.10 687.98 254.33 688.57 252.44 688.68&#10;  Q 248.64 688.90 248.56 688.91&#10;  Q 237.70 690.08 236.00 690.16&#10;  Q 225.72 690.67 215.45 691.17&#10;  Q 209.56 691.45 197.54 691.58&#10;  Q 188.61 691.68 179.65 692.22"/>
<path stroke="#f5a169" d="&#10;  M 179.65 692.22&#10;  Q 157.76 692.05 135.76 691.68&#10;  Q 126.43 691.53 116.76 691.00&#10;  Q 107.26 690.48 97.75 689.96&#10;  Q 92.98 689.69 85.77 692.03"/>
<path stroke="#f75c1d" d="&#10;  M 518.25 410.18&#10;  Q 516.54 416.44 514.55 422.31&#10;  Q 513.64 424.99 511.78 434.07&#10;  Q 510.59 439.86 510.31 446.03&#10;  Q 509.33 467.47 511.86 488.43&#10;  Q 513.74 504.04 514.12 507.05&#10;  Q 515.15 515.12 517.28 525.51&#10;  Q 518.11 529.54 520.15 534.46&#10;  Q 520.81 536.05 523.49 543.28&#10;  Q 524.72 546.60 527.99 553.57&#10;  Q 529.94 557.70 533.78 563.07&#10;  Q 545.29 579.15 547.70 582.17&#10;  Q 550.36 585.51 551.07 586.48&#10;  Q 552.48 588.39 553.26 591.06&#10;  Q 553.77 592.80 555.15 596.29&#10;  C 556.47 599.64 557.52 604.75 557.53 607.50&#10;  Q 557.53 608.82 556.74 614.66&#10;  Q 556.27 618.17 555.26 621.70&#10;  Q 552.20 632.38 550.76 636.51&#10;  A 0.53 0.53 0.0 0 0 551.04 637.17&#10;  Q 554.40 638.72 557.39 639.95&#10;  Q 564.70 642.96 576.25 646.57&#10;  A 1.44 1.44 0.0 0 1 577.04 648.72&#10;  Q 575.90 650.50 573.44 651.71&#10;  Q 565.21 655.77 555.64 657.30&#10;  Q 554.60 657.47 548.78 658.00&#10;  Q 544.70 658.38 541.97 658.88&#10;  Q 535.44 660.10 526.67 661.22&#10;  Q 517.79 662.36 511.38 663.51&#10;  Q 502.38 665.11 493.40 666.09&#10;  C 490.11 666.45 486.75 667.38 482.83 668.11&#10;  C 475.88 669.41 469.31 671.55 463.28 672.78&#10;  Q 460.22 673.41 451.71 676.01&#10;  Q 443.67 678.47 434.76 680.21&#10;  Q 429.73 681.19 427.56 681.68&#10;  Q 423.01 682.70 420.39 683.10&#10;  Q 406.13 685.31 388.37 688.54&#10;  Q 377.02 690.60 368.63 691.82&#10;  Q 362.91 692.65 346.46 694.91&#10;  Q 346.40 694.92 339.53 695.50&#10;  Q 336.35 695.77 332.03 696.59&#10;  Q 329.35 697.09 310.53 698.84&#10;  Q 302.51 699.58 296.53 700.43&#10;  Q 288.32 701.59 282.50 701.80&#10;  Q 278.46 701.94 270.72 702.33&#10;  Q 258.94 702.92 245.35 702.73&#10;  Q 241.09 702.67 236.19 702.21&#10;  Q 234.22 702.03 227.03 701.58&#10;  Q 218.96 701.07 213.28 700.35&#10;  Q 198.46 698.46 183.63 696.69&#10;  Q 183.12 696.63 182.80 696.23&#10;  L 179.65 692.22"/>
<path stroke="#7f3a13" d="&#10;  M 63.99 686.37&#10;  Q 74.11 683.34 79.22 680.99&#10;  Q 81.27 680.04 83.81 677.57&#10;  Q 86.08 675.36 88.09 673.86&#10;  Q 91.43 671.36 94.15 668.64"/>
<path stroke="#78220b" d="&#10;  M 94.15 668.64&#10;  Q 99.34 664.14 101.99 658.98&#10;  Q 104.59 653.94 107.91 645.67&#10;  Q 109.70 641.20 112.47 636.12&#10;  Q 115.09 631.31 116.73 626.49&#10;  Q 122.80 608.68 126.89 590.65&#10;  Q 128.01 585.67 128.34 581.69&#10;  Q 128.73 576.78 129.43 572.65&#10;  Q 130.15 568.30 130.33 563.34&#10;  C 130.52 558.11 130.34 553.30 131.19 548.25"/>
<path stroke="#562b10" d="&#10;  M 131.19 548.25&#10;  L 131.38 542.01&#10;  Q 131.40 541.08 130.50 540.85&#10;  Q 120.10 538.11 109.56 534.87&#10;  Q 107.76 534.31 104.93 533.75&#10;  Q 104.69 533.70 100.25 532.72&#10;  Q 99.72 532.60 100.06 533.03&#10;  Q 105.22 539.53 107.08 545.12&#10;  Q 108.16 548.41 110.79 555.52&#10;  Q 113.32 562.40 113.97 566.01&#10;  Q 116.07 577.62 113.48 588.27&#10;  Q 108.78 607.60 107.16 613.42&#10;  Q 106.85 614.54 105.04 618.41"/>
<path stroke="#78220b" d="&#10;  M 105.04 618.41&#10;  Q 102.98 620.27 100.61 621.86&#10;  Q 98.40 623.35 94.60 629.61&#10;  Q 94.14 630.37 93.51 631.03&#10;  Q 92.74 631.85 92.30 632.36"/>
<path stroke="#7f3a13" d="&#10;  M 92.30 632.36&#10;  Q 86.55 634.83 81.54 636.96&#10;  Q 75.90 639.37 73.57 639.89&#10;  Q 57.46 643.49 45.90 632.65&#10;  C 44.26 631.11 42.91 629.03 41.39 627.10&#10;  Q 39.54 624.76 38.49 622.64&#10;  Q 37.37 620.37 36.19 617.70"/>
<path stroke="#562b10" d="&#10;  M 36.19 617.70&#10;  Q 35.00 612.02 34.99 605.50&#10;  Q 34.98 601.63 36.64 598.13&#10;  Q 38.16 594.94 39.84 591.82&#10;  C 41.15 589.37 42.48 585.33 44.60 582.62&#10;  Q 50.63 574.91 56.51 570.30&#10;  Q 60.23 567.37 64.37 568.65&#10;  Q 67.06 569.47 67.01 572.22&#10;  Q 66.93 576.29 65.07 579.85&#10;  Q 60.55 588.55 58.03 591.96&#10;  Q 55.70 595.11 55.27 597.52&#10;  Q 54.69 600.78 55.16 604.05&#10;  Q 56.44 613.01 62.04 620.38&#10;  Q 65.16 624.48 70.54 623.28&#10;  Q 77.71 621.67 81.92 618.40&#10;  C 84.42 616.46 86.69 613.25 88.73 611.28&#10;  C 91.54 608.55 93.43 605.30 94.91 601.67&#10;  Q 103.14 581.45 97.92 560.64&#10;  Q 95.73 551.92 94.42 548.73&#10;  Q 90.32 538.74 83.86 533.89&#10;  Q 79.37 530.52 72.46 528.97&#10;  Q 67.59 527.88 61.32 529.71&#10;  Q 53.21 532.08 49.69 534.19&#10;  Q 45.68 536.59 44.76 537.77&#10;  Q 40.68 543.05 35.23 548.23&#10;  Q 33.98 549.43 31.86 553.82&#10;  Q 30.74 556.14 28.85 559.55&#10;  Q 24.93 566.62 21.35 576.19&#10;  Q 18.39 584.11 17.02 593.89&#10;  Q 15.21 606.82 14.94 612.62&#10;  Q 14.08 630.96 17.82 651.47&#10;  Q 18.50 655.19 23.01 664.03&#10;  Q 24.26 666.47 25.76 668.26&#10;  Q 26.87 669.57 28.49 672.12&#10;  Q 32.03 677.69 37.65 680.86&#10;  Q 40.85 682.66 51.72 685.55&#10;  Q 56.13 686.71 63.99 686.37"/>
<path stroke="#d56422" d="&#10;  M 36.19 617.70&#10;  Q 36.36 620.79 36.54 623.55&#10;  Q 36.67 625.66 36.12 627.80&#10;  Q 35.44 630.46 35.34 632.04&#10;  Q 34.47 646.32 40.15 659.50&#10;  Q 42.19 664.24 45.40 668.13&#10;  Q 46.46 669.40 50.42 672.65&#10;  Q 52.72 674.54 55.23 677.10&#10;  Q 59.53 681.51 63.99 686.37"/>
<path stroke="#f75c1d" d="&#10;  M 94.15 668.64&#10;  Q 92.78 663.04 92.78 657.22&#10;  Q 92.77 644.97 92.30 632.36"/>
<path stroke="#cd4d1a" d="&#10;  M 131.19 548.25&#10;  Q 126.16 545.13 122.33 550.30&#10;  Q 119.50 554.14 117.96 556.96&#10;  Q 116.67 559.34 116.98 560.80&#10;  Q 118.68 568.78 119.26 571.98&#10;  Q 119.69 574.29 119.15 577.18&#10;  Q 118.32 581.67 117.97 586.23&#10;  Q 117.79 588.49 114.22 600.65&#10;  C 113.31 603.74 112.11 605.70 110.23 609.42&#10;  Q 110.20 609.48 108.42 613.98&#10;  Q 107.30 616.84 105.04 618.41"/>
</g>
<path fill="#000000" d="&#10;  M 216.85 63.08&#10;  Q 214.96 62.46 214.52 63.77&#10;  Q 214.34 64.29 214.87 64.44&#10;  Q 216.17 64.81 216.85 63.08&#10;  Q 217.63 63.72 218.59 62.84&#10;  Q 223.03 58.70 224.49 57.48&#10;  Q 226.69 55.64 228.94 52.47&#10;  Q 232.38 47.62 237.11 44.65&#10;  Q 239.85 42.93 242.18 40.54&#10;  Q 244.77 37.87 248.94 35.13&#10;  Q 255.51 30.82 256.14 30.38&#10;  Q 260.17 27.54 265.96 24.08&#10;  Q 269.35 22.06 274.09 20.20&#10;  Q 276.46 19.27 282.33 16.57&#10;  Q 293.52 11.41 308.58 8.29&#10;  Q 339.58 1.88 369.39 8.42&#10;  Q 382.68 11.34 394.74 16.76&#10;  Q 397.19 17.85 399.90 18.71&#10;  Q 403.53 19.85 405.00 20.76&#10;  Q 416.04 27.53 423.94 32.43&#10;  Q 427.52 34.64 431.16 37.98&#10;  C 433.52 40.14 436.45 42.21 438.91 44.06&#10;  Q 440.71 45.40 442.27 47.27&#10;  Q 445.32 50.91 449.43 54.42&#10;  Q 451.79 56.42 454.48 60.22&#10;  Q 456.68 63.34 461.83 69.00&#10;  C 464.35 71.79 466.15 75.91 468.07 78.76&#10;  Q 475.40 89.62 477.33 93.90&#10;  Q 484.38 109.52 487.13 118.66&#10;  Q 488.74 123.99 490.69 131.21&#10;  Q 491.58 134.49 491.99 137.12&#10;  Q 492.58 140.84 492.84 143.23&#10;  Q 493.68 150.89 493.86 152.17&#10;  Q 494.54 156.84 494.61 161.06&#10;  Q 494.93 180.74 491.62 196.64&#10;  Q 491.00 199.59 488.56 208.59&#10;  Q 487.07 214.07 484.62 220.00&#10;  Q 482.22 225.78 481.64 227.50&#10;  Q 480.32 231.36 478.34 234.82&#10;  Q 469.81 249.72 465.47 255.72&#10;  Q 462.52 259.82 454.71 268.45&#10;  Q 449.67 274.02 442.78 280.02&#10;  Q 431.62 289.75 429.11 291.36&#10;  Q 424.45 294.33 419.77 297.23&#10;  A 0.92 0.92 0.0 0 0 419.46 298.48&#10;  Q 420.18 299.71 421.70 300.32&#10;  Q 430.95 304.04 435.78 305.44&#10;  Q 440.36 306.77 443.18 308.61&#10;  C 446.19 310.58 449.64 311.53 453.00 313.83&#10;  Q 454.60 314.93 460.31 317.50&#10;  Q 463.61 318.99 467.34 321.57&#10;  Q 475.86 327.47 483.00 331.92&#10;  C 484.50 332.86 486.79 335.54 488.55 335.67&#10;  Q 496.70 336.26 498.26 336.42&#10;  Q 500.73 336.66 502.48 334.47&#10;  C 506.92 328.92 510.22 324.96 516.39 321.86&#10;  Q 519.09 320.51 516.09 320.20&#10;  Q 513.24 319.91 510.47 320.95&#10;  Q 501.24 324.43 497.93 332.95&#10;  Q 497.06 335.19 494.68 334.78&#10;  L 490.04 333.97&#10;  Q 487.75 333.57 488.80 331.50&#10;  L 493.89 321.40&#10;  A 2.51 2.49 86.1 0 1 494.72 320.44&#10;  Q 497.30 318.63 500.00 316.52&#10;  C 505.03 312.59 511.33 311.40 517.51 311.68&#10;  Q 522.89 311.92 529.46 312.99&#10;  Q 545.18 315.55 545.93 315.69&#10;  C 551.65 316.74 557.28 318.53 563.01 319.59&#10;  Q 567.63 320.44 570.59 321.72&#10;  C 573.46 322.98 576.86 323.78 580.24 325.87&#10;  Q 585.17 328.91 590.23 331.75&#10;  Q 591.15 332.26 593.62 335.28&#10;  C 595.71 337.85 596.93 341.79 598.72 344.44&#10;  C 601.82 349.06 601.61 357.07 600.99 362.53&#10;  Q 600.50 366.93 597.97 372.19&#10;  Q 594.71 378.99 593.46 381.33&#10;  Q 592.72 382.72 593.06 384.26&#10;  Q 593.74 387.35 595.11 391.23&#10;  Q 596.74 395.84 596.93 398.07&#10;  Q 597.37 403.03 596.44 407.44&#10;  Q 596.16 408.76 593.05 415.72&#10;  Q 592.08 417.88 590.25 419.30&#10;  C 588.31 420.81 584.08 424.09 581.17 425.40&#10;  Q 572.58 429.28 564.01 430.29&#10;  Q 554.39 431.42 548.87 432.31&#10;  A 0.81 0.81 0.0 0 0 548.19 433.00&#10;  Q 546.21 446.27 544.68 460.52&#10;  Q 543.70 469.68 544.01 480.49&#10;  Q 544.41 494.79 546.41 510.02&#10;  Q 547.10 515.33 548.54 522.38&#10;  Q 550.80 533.43 551.06 534.69&#10;  Q 551.89 538.70 555.80 549.49&#10;  Q 558.90 558.02 561.75 563.66&#10;  Q 565.54 571.14 570.04 579.26&#10;  Q 571.50 581.90 575.00 586.02&#10;  C 576.54 587.83 577.66 589.84 579.19 592.40&#10;  Q 580.03 593.81 581.25 595.02&#10;  Q 586.87 600.58 590.92 605.30&#10;  Q 593.80 608.66 596.98 610.80&#10;  Q 600.85 613.41 605.52 617.76&#10;  C 608.54 620.57 612.04 621.58 615.72 623.96&#10;  Q 624.15 629.42 632.74 633.68&#10;  Q 634.99 634.80 635.29 635.77&#10;  Q 635.80 637.46 636.04 638.82&#10;  A 0.72 0.72 0.0 0 1 635.63 639.60&#10;  Q 628.76 642.68 625.07 643.94&#10;  Q 619.51 645.84 614.58 647.97&#10;  Q 603.27 652.83 597.78 655.02&#10;  Q 591.66 657.46 583.51 660.03&#10;  Q 582.40 660.38 565.78 666.62&#10;  Q 560.31 668.68 557.46 669.36&#10;  C 553.58 670.28 550.27 671.77 546.29 672.95&#10;  Q 538.44 675.27 528.16 679.08&#10;  C 525.75 679.96 523.22 680.43 520.90 680.90&#10;  Q 519.52 681.17 518.04 681.71&#10;  Q 511.63 684.05 502.64 686.27&#10;  Q 496.30 687.84 492.47 689.04&#10;  Q 488.38 690.32 482.36 692.08&#10;  Q 478.41 693.23 471.31 694.71&#10;  Q 467.29 695.55 463.92 696.51&#10;  C 457.69 698.27 451.58 699.29 445.68 700.73&#10;  C 435.68 703.18 429.13 704.24 416.12 706.64&#10;  Q 409.41 707.88 401.81 708.90&#10;  C 396.22 709.65 388.84 711.07 382.71 711.81&#10;  Q 377.30 712.47 366.40 713.98&#10;  Q 359.45 714.94 350.06 715.67&#10;  Q 338.95 716.54 326.98 717.48&#10;  Q 315.01 718.42 307.01 718.61&#10;  Q 273.44 719.40 240.54 717.05&#10;  Q 235.42 716.69 231.71 716.60&#10;  Q 227.32 716.51 222.85 716.10&#10;  Q 216.91 715.55 195.48 714.11&#10;  C 193.08 713.95 189.60 713.04 186.79 712.85&#10;  Q 174.27 711.98 164.15 710.76&#10;  Q 153.40 709.46 144.33 708.70&#10;  Q 136.01 708.00 124.49 706.61&#10;  Q 122.30 706.34 103.62 704.66&#10;  C 99.22 704.26 95.15 703.13 90.92 702.83&#10;  Q 71.25 701.44 50.63 698.18&#10;  C 43.70 697.09 38.13 694.55 31.25 691.84&#10;  A 7.14 7.05 -12.3 0 1 28.99 690.41&#10;  Q 22.59 684.38 21.44 683.42&#10;  Q 18.63 681.08 16.89 677.99&#10;  Q 10.07 665.85 9.34 664.30&#10;  C 5.32 655.76 3.82 645.60 2.52 635.74&#10;  Q 1.52 628.19 1.55 623.25&#10;  Q 1.74 596.83 8.70 573.70&#10;  Q 10.66 567.18 14.73 559.50&#10;  C 16.23 556.68 17.18 554.29 18.19 551.50&#10;  Q 18.65 550.24 19.92 548.51&#10;  Q 20.08 548.29 27.12 538.53&#10;  Q 31.23 532.83 34.33 530.31&#10;  Q 37.34 527.88 43.92 523.17&#10;  C 47.63 520.52 51.01 519.43 55.45 517.86&#10;  Q 63.04 515.18 71.71 515.58&#10;  Q 75.97 515.78 82.43 517.49&#10;  Q 92.27 520.11 92.96 520.37&#10;  Q 96.38 521.65 96.81 521.81&#10;  Q 99.08 522.67 100.68 523.08&#10;  Q 107.35 524.82 118.92 527.91&#10;  C 121.66 528.64 126.33 530.23 130.44 530.98&#10;  Q 132.10 531.29 132.14 529.60&#10;  Q 132.57 509.29 130.73 486.25&#10;  C 130.34 481.43 129.31 476.74 128.95 471.90&#10;  Q 128.38 464.22 126.78 456.17&#10;  C 125.61 450.34 125.34 444.50 123.77 438.56&#10;  Q 123.00 435.67 122.35 431.72&#10;  A 3.30 3.29 -1.0 0 0 119.51 428.99&#10;  Q 110.65 427.86 108.06 427.53&#10;  Q 102.69 426.83 97.11 424.52&#10;  Q 92.67 422.68 84.27 416.79&#10;  Q 82.31 415.42 80.50 410.71&#10;  Q 77.91 403.98 77.47 400.94&#10;  Q 76.92 397.19 77.92 393.30&#10;  Q 78.27 391.96 81.52 382.97&#10;  Q 82.87 379.24 80.58 375.51&#10;  Q 79.20 373.27 79.16 373.19&#10;  Q 70.56 356.96 77.95 340.77&#10;  Q 80.49 335.20 84.98 331.37&#10;  Q 94.84 322.95 107.20 319.74&#10;  Q 114.77 317.78 132.20 313.88&#10;  Q 144.51 311.13 158.22 310.64&#10;  Q 161.08 310.54 165.30 311.06&#10;  C 170.16 311.67 175.60 311.34 179.73 315.98&#10;  C 181.65 318.13 184.64 320.06 186.18 323.13&#10;  Q 187.53 325.81 188.61 329.97&#10;  A 1.43 1.43 0.0 0 0 190.41 330.98&#10;  Q 192.58 330.32 194.14 329.34&#10;  Q 201.60 324.65 203.43 323.22&#10;  Q 206.00 321.21 209.37 319.78&#10;  C 214.07 317.79 220.03 314.00 223.41 312.38&#10;  C 227.28 310.52 231.55 308.02 236.40 306.46&#10;  Q 245.36 303.59 254.45 299.38&#10;  A 1.04 1.03 -36.4 0 0 254.71 297.67&#10;  C 251.58 294.85 246.72 292.15 244.74 290.81&#10;  Q 242.81 289.50 239.71 286.44&#10;  Q 236.50 283.29 233.57 281.73&#10;  Q 231.34 280.55 229.96 278.90&#10;  Q 226.03 274.21 221.01 269.86&#10;  Q 217.70 266.99 216.85 265.56&#10;  C 216.13 264.35 213.93 261.36 212.49 259.81&#10;  Q 207.43 254.37 205.94 251.57&#10;  Q 203.97 247.90 200.63 242.66&#10;  Q 199.26 240.52 195.75 234.31&#10;  Q 193.35 230.06 191.81 225.47&#10;  C 190.03 220.13 187.88 215.60 186.38 210.30&#10;  Q 182.26 195.75 181.95 193.01&#10;  Q 179.98 175.84 179.78 171.99&#10;  C 179.59 168.60 179.37 166.13 179.62 163.32&#10;  Q 180.63 151.88 181.68 142.90&#10;  C 182.29 137.62 183.94 132.96 185.05 127.56&#10;  C 185.88 123.54 187.87 119.44 188.86 115.14&#10;  Q 189.21 113.62 190.67 110.29&#10;  Q 193.19 104.56 196.65 96.07&#10;  Q 197.00 95.21 196.19 94.77&#10;  Q 184.28 88.31 171.40 92.63&#10;  Q 165.93 94.46 163.71 95.05&#10;  Q 158.91 96.33 156.00 97.34&#10;  Q 141.07 102.53 129.73 104.65&#10;  Q 124.69 105.60 117.24 104.92&#10;  C 114.56 104.68 111.24 103.13 109.00 101.78&#10;  Q 102.14 97.65 95.31 93.46&#10;  Q 94.44 92.93 92.50 90.75&#10;  C 90.11 88.07 86.64 85.83 83.94 84.17&#10;  Q 81.39 82.60 79.63 80.55&#10;  C 76.83 77.30 75.20 74.96 71.97 72.29&#10;  C 69.14 69.95 67.77 67.58 65.79 64.77&#10;  A 0.75 0.75 0.0 0 1 66.54 63.60&#10;  Q 79.43 65.96 91.75 65.75&#10;  Q 105.19 65.51 116.08 64.02&#10;  Q 133.72 61.61 135.48 61.42&#10;  Q 143.72 60.53 155.34 59.19&#10;  A 1.04 1.04 0.0 0 0 155.98 57.44&#10;  Q 151.32 52.47 147.54 48.96&#10;  Q 145.19 46.78 142.78 42.98&#10;  Q 139.93 38.48 135.90 34.21&#10;  Q 133.72 31.91 131.79 28.81&#10;  C 129.81 25.65 128.77 23.99 126.72 21.51&#10;  Q 119.52 12.77 114.65 2.65&#10;  A 0.67 0.67 0.0 0 1 115.32 1.69&#10;  Q 117.12 1.88 121.09 2.26&#10;  C 126.21 2.75 132.28 4.52 136.30 4.93&#10;  C 141.30 5.45 146.39 7.55 150.96 8.16&#10;  Q 154.38 8.61 157.73 10.01&#10;  Q 160.28 11.07 164.53 11.89&#10;  C 167.30 12.42 170.12 14.10 172.40 14.86&#10;  Q 176.91 16.36 181.16 18.31&#10;  Q 181.89 18.65 187.75 21.01&#10;  Q 192.69 23.00 197.30 28.22&#10;  Q 200.75 32.13 204.05 36.20&#10;  Q 206.00 38.61 206.70 45.35&#10;  Q 206.76 45.93 207.45 46.98&#10;  Q 207.88 47.62 208.64 48.10&#10;  C 211.34 49.78 218.27 54.48 218.91 57.65&#10;  Q 219.01 58.12 218.75 58.51&#10;  Q 217.67 60.17 216.55 61.73&#10;  Q 216.20 62.22 216.85 63.08&#10;  Z&#10;  M 155.45 39.33&#10;  Q 155.06 40.01 154.59 40.33&#10;  A 1.36 1.35 -40.1 0 0 154.41 42.43&#10;  L 169.96 57.29&#10;  A 0.72 0.72 0.0 0 0 171.18 56.81&#10;  Q 171.61 49.16 170.61 39.97&#10;  C 170.33 37.35 170.65 32.47 172.19 30.48&#10;  Q 175.32 26.40 179.29 23.99&#10;  Q 180.11 23.49 179.17 23.32&#10;  Q 163.74 20.58 145.34 16.03&#10;  Q 140.67 14.88 137.23 13.78&#10;  Q 133.25 12.51 129.17 11.60&#10;  Q 126.79 11.08 128.28 13.00&#10;  C 131.71 17.46 137.48 23.21 140.01 26.50&#10;  Q 140.63 27.31 142.79 31.08&#10;  C 144.08 33.33 146.14 35.96 148.56 37.07&#10;  Q 149.06 37.29 151.17 37.20&#10;  Q 153.47 37.10 155.27 38.48&#10;  Q 155.73 38.83 155.45 39.33&#10;  Z&#10;  M 195.23 35.73&#10;  Q 193.07 30.71 184.41 27.27&#10;  Q 184.09 27.15 184.12 27.48&#10;  L 184.16 27.97&#10;  A 0.20 0.19 13.8 0 0 184.25 28.11&#10;  Q 188.22 30.49 191.29 32.47&#10;  Q 192.95 33.54 193.63 35.39&#10;  Q 194.30 37.21 195.11 36.37&#10;  A 0.58 0.57 -34.5 0 0 195.23 35.73&#10;  Z&#10;  M 214.87 104.51&#10;  A 0.46 0.46 0.0 0 0 215.31 105.14&#10;  Q 216.13 105.11 216.97 104.72&#10;  Q 227.18 99.86 238.46 96.38&#10;  C 243.27 94.90 248.05 94.28 252.32 92.98&#10;  Q 256.85 91.60 262.65 90.21&#10;  Q 277.62 86.62 279.07 86.20&#10;  Q 281.80 85.40 282.88 85.16&#10;  Q 294.79 82.48 299.13 81.63&#10;  Q 309.14 79.68 315.39 78.22&#10;  Q 327.98 75.29 332.25 74.51&#10;  Q 342.30 72.67 349.22 71.29&#10;  Q 358.29 69.49 366.22 68.38&#10;  Q 386.69 65.52 398.78 64.30&#10;  Q 400.07 64.17 399.23 63.19&#10;  Q 395.07 58.27 392.12 55.56&#10;  Q 391.00 54.53 386.86 51.34&#10;  C 383.84 49.01 381.56 45.93 377.90 44.53&#10;  Q 374.19 43.10 364.69 38.69&#10;  Q 357.89 35.53 349.65 33.28&#10;  Q 341.28 30.99 333.98 30.31&#10;  Q 316.34 28.66 299.81 31.85&#10;  Q 292.56 33.26 285.07 36.33&#10;  Q 271.43 41.93 259.29 50.03&#10;  Q 257.54 51.20 255.41 53.50&#10;  C 252.58 56.54 250.21 58.22 246.58 60.82&#10;  C 243.86 62.77 241.57 67.09 238.97 69.55&#10;  Q 234.56 73.73 233.05 75.79&#10;  Q 225.98 85.46 219.92 94.58&#10;  C 217.98 97.51 216.23 101.05 214.87 104.51&#10;  Z&#10;  M 195.64 45.71&#10;  L 198.28 45.79&#10;  A 0.30 0.30 0.0 0 0 198.59 45.50&#10;  L 198.59 45.29&#10;  A 13.85 1.50 -88.3 0 0 197.50 31.40&#10;  L 197.26 31.39&#10;  A 13.85 1.50 -88.3 0 0 195.35 45.19&#10;  L 195.35 45.40&#10;  A 0.30 0.30 0.0 0 0 195.64 45.71&#10;  Z&#10;  M 181.99 39.07&#10;  C 183.30 38.83 184.61 40.02 186.04 40.94&#10;  Q 186.45 41.20 186.94 41.16&#10;  L 192.88 40.66&#10;  A 1.06 1.06 0.0 0 0 193.57 38.89&#10;  Q 192.25 37.46 189.73 38.52&#10;  Q 188.21 39.17 187.59 39.37&#10;  Q 187.11 39.53 186.64 39.31&#10;  Q 183.11 37.68 179.84 37.92&#10;  Q 177.77 38.07 178.08 39.76&#10;  A 0.89 0.88 -25.8 0 0 179.53 40.26&#10;  Q 180.62 39.32 181.99 39.07&#10;  Z&#10;  M 179.93 47.19&#10;  A 1.03 1.03 0.0 0 1 179.22 45.55&#10;  Q 180.76 43.49 180.57 41.85&#10;  A 1.23 1.01 79.8 0 0 179.28 40.75&#10;  L 178.68 40.91&#10;  Q 177.53 41.23 177.53 42.42&#10;  L 177.53 48.28&#10;  A 0.75 0.74 -90.0 0 0 178.27 49.03&#10;  L 182.75 49.03&#10;  Q 183.28 49.03 183.71 48.71&#10;  L 186.81 46.43&#10;  A 0.80 0.75 68.2 0 0 187.10 45.69&#10;  Q 186.96 44.87 186.47 43.42&#10;  Q 186.16 42.48 186.08 43.44&#10;  L 186.01 44.21&#10;  Q 185.97 44.64 185.57 45.04&#10;  Q 183.05 47.56 179.93 47.19&#10;  Z&#10;  M 112.61 94.37&#10;  Q 114.10 94.32 115.78 95.56&#10;  A 1.50 1.47 64.8 0 0 116.56 95.85&#10;  Q 118.64 95.96 120.78 94.76&#10;  Q 128.07 90.70 132.53 87.83&#10;  Q 136.69 85.17 138.88 84.22&#10;  Q 141.19 83.21 145.42 80.96&#10;  Q 150.07 78.47 155.55 76.83&#10;  Q 167.22 73.33 179.75 72.68&#10;  Q 182.13 72.56 189.97 71.24&#10;  Q 194.25 70.52 197.42 69.06&#10;  Q 201.36 67.25 205.41 65.71&#10;  Q 205.57 65.65 205.55 65.49&#10;  L 205.52 65.12&#10;  Q 205.51 64.97 205.36 65.00&#10;  C 200.64 65.86 195.99 67.69 191.47 68.35&#10;  Q 181.66 69.79 177.50 69.56&#10;  Q 165.00 68.86 161.25 69.12&#10;  Q 144.80 70.27 132.82 71.20&#10;  C 129.39 71.47 125.53 72.19 122.60 72.66&#10;  C 116.95 73.58 110.69 73.85 105.48 74.38&#10;  Q 99.23 75.01 96.04 74.96&#10;  Q 88.11 74.81 86.55 74.77&#10;  Q 84.68 74.72 86.10 75.94&#10;  Q 89.47 78.80 92.46 81.95&#10;  Q 94.37 83.97 97.46 85.60&#10;  C 101.85 87.91 106.45 90.99 110.65 94.41&#10;  Q 111.29 94.94 111.93 96.10&#10;  Q 112.58 97.27 113.00 97.49&#10;  Q 116.28 99.19 114.24 96.06&#10;  Q 113.89 95.51 112.51 94.82&#10;  Q 111.68 94.40 112.61 94.37&#10;  Z&#10;  M 448.79 134.14&#10;  Q 449.55 134.15 450.11 133.95&#10;  A 0.30 0.30 0.0 0 0 450.12 133.39&#10;  Q 435.70 127.44 425.19 122.66&#10;  Q 421.83 121.14 413.46 119.37&#10;  Q 408.71 118.37 401.44 116.57&#10;  Q 390.39 113.84 383.27 112.86&#10;  Q 350.11 108.30 320.00 106.78&#10;  Q 311.66 106.35 311.16 106.31&#10;  Q 306.19 105.87 302.32 105.79&#10;  Q 267.54 105.01 234.75 105.24&#10;  Q 231.63 105.27 216.66 106.02&#10;  C 214.75 106.12 213.66 106.73 212.78 108.31&#10;  Q 208.79 115.49 206.27 121.23&#10;  C 204.86 124.45 204.27 127.51 203.27 131.78&#10;  Q 202.52 134.97 200.94 139.66&#10;  Q 199.92 142.70 199.37 148.27&#10;  Q 199.15 150.58 199.48 151.61&#10;  A 0.69 0.69 0.0 0 0 200.30 152.08&#10;  Q 203.24 151.40 207.06 151.22&#10;  Q 218.61 150.68 227.57 149.56&#10;  Q 238.47 148.20 261.11 147.34&#10;  Q 265.47 147.18 273.43 146.63&#10;  Q 279.75 146.19 285.77 145.65&#10;  Q 293.14 144.99 304.28 144.87&#10;  Q 356.76 144.27 390.35 143.95&#10;  Q 393.66 143.92 400.03 143.67&#10;  Q 402.87 143.55 409.73 143.44&#10;  C 414.04 143.37 416.55 142.82 421.81 141.80&#10;  Q 425.56 141.08 430.60 139.19&#10;  Q 436.71 136.90 444.40 134.90&#10;  Q 447.37 134.13 448.79 134.14&#10;  Z&#10;  M 293.60 184.45&#10;  L 292.96 183.94&#10;  Q 292.55 183.61 292.23 184.02&#10;  Q 286.89 190.81 280.47 196.26&#10;  Q 276.06 199.67 270.84 201.30&#10;  Q 270.35 201.45 270.10 201.90&#10;  Q 269.44 203.07 268.21 203.43&#10;  Q 267.57 203.62 268.21 203.81&#10;  L 268.87 204.01&#10;  Q 268.54 203.91 268.22 204.00&#10;  Q 266.69 203.64 265.43 204.20&#10;  Q 264.72 204.51 265.49 204.49&#10;  L 268.28 204.40&#10;  Q 269.02 204.93 269.99 205.05&#10;  C 274.78 205.64 278.89 205.75 283.27 206.59&#10;  Q 290.16 207.90 298.19 208.62&#10;  Q 300.68 208.85 307.90 210.24&#10;  Q 312.71 211.17 317.55 211.59&#10;  Q 329.50 212.64 345.77 213.23&#10;  Q 352.42 213.48 358.27 212.91&#10;  Q 361.59 212.58 370.71 211.91&#10;  Q 377.95 211.38 386.72 209.28&#10;  Q 394.63 207.38 402.47 205.16&#10;  Q 403.81 205.45 404.73 204.93&#10;  Q 405.20 204.67 404.81 204.29&#10;  L 403.71 203.24&#10;  Q 403.27 202.82 403.35 202.21&#10;  Q 403.70 199.65 402.01 197.94&#10;  Q 401.61 197.53 401.17 197.89&#10;  Q 400.04 198.83 399.82 201.21&#10;  Q 398.65 200.88 397.91 201.04&#10;  A 0.64 0.64 0.0 0 1 397.21 200.70&#10;  Q 397.11 200.49 397.27 200.22&#10;  C 398.61 198.97 399.46 197.12 400.05 195.52&#10;  Q 400.51 194.27 399.85 193.44&#10;  Q 394.88 187.20 386.57 187.88&#10;  L 379.96 187.64&#10;  Q 379.55 187.62 379.38 187.24&#10;  Q 379.31 187.10 379.32 186.94&#10;  Q 379.33 186.74 379.47 186.59&#10;  L 380.42 185.60&#10;  Q 380.94 185.06 380.19 185.16&#10;  Q 374.80 185.88 366.71 186.46&#10;  C 363.78 186.66 361.11 187.39 358.14 187.16&#10;  Q 355.83 186.97 357.74 185.66&#10;  Q 362.59 182.31 367.92 179.71&#10;  Q 377.29 175.12 378.46 174.48&#10;  Q 383.75 171.57 389.01 168.61&#10;  C 391.82 167.03 394.87 166.70 397.81 165.09&#10;  Q 404.08 161.66 408.83 159.51&#10;  Q 409.73 159.10 408.77 158.88&#10;  Q 408.00 158.71 406.50 158.68&#10;  Q 377.17 158.03 283.00 158.63&#10;  Q 272.11 158.70 268.73 158.95&#10;  Q 268.29 158.99 268.40 159.41&#10;  A 0.53 0.49 2.9 0 0 268.73 159.75&#10;  Q 273.32 161.27 280.20 164.68&#10;  Q 285.55 167.33 288.69 168.54&#10;  Q 294.97 170.97 296.91 172.50&#10;  Q 301.76 176.36 309.01 179.89&#10;  C 310.96 180.84 314.02 180.72 316.01 180.68&#10;  A 1.62 1.62 0.0 0 1 317.48 183.03&#10;  L 315.54 186.88&#10;  A 2.10 2.08 -75.7 0 1 313.61 188.04&#10;  Q 310.86 187.98 307.56 187.14&#10;  Q 306.49 186.86 301.76 186.41&#10;  Q 297.56 186.00 293.60 184.45&#10;  Z&#10;  M 427.39 159.86&#10;  L 425.51 160.15&#10;  Q 423.58 160.44 425.36 161.28&#10;  Q 425.84 161.51 426.83 161.46&#10;  A 0.87 0.86 -77.7 0 0 427.57 160.98&#10;  L 427.83 160.46&#10;  A 0.42 0.42 0.0 0 0 427.39 159.86&#10;  Z&#10;  M 227.79 162.48&#10;  L 202.33 164.35&#10;  L 195.14 165.20&#10;  A 0.67 0.66 -86.9 0 0 194.56 165.73&#10;  Q 192.67 174.34 194.64 182.77&#10;  Q 195.22 185.24 196.78 186.19&#10;  Q 198.97 187.52 202.59 187.88&#10;  Q 210.58 190.32 219.24 192.23&#10;  Q 221.02 192.62 227.42 193.65&#10;  Q 242.97 198.13 258.94 200.86&#10;  Q 260.73 201.16 261.58 200.86&#10;  Q 262.70 200.47 264.31 200.95&#10;  Q 264.88 201.12 264.46 200.69&#10;  L 258.22 194.27&#10;  Q 256.90 191.04 255.63 188.19&#10;  C 254.68 186.07 254.80 183.77 254.51 182.05&#10;  Q 254.44 181.63 254.13 181.35&#10;  Q 253.81 181.06 253.78 180.99&#10;  Q 253.54 180.51 254.48 180.56&#10;  Q 257.60 180.71 259.86 178.64&#10;  Q 260.23 178.29 259.76 178.09&#10;  Q 255.32 176.24 253.16 179.89&#10;  Q 252.88 180.35 252.93 180.87&#10;  L 253.46 187.16&#10;  Q 253.50 187.63 253.14 187.94&#10;  Q 252.49 188.48 252.28 187.65&#10;  Q 251.40 188.67 250.92 189.17&#10;  Q 249.29 190.88 247.92 189.11&#10;  Q 247.37 188.40 247.00 187.60&#10;  Q 246.70 186.93 247.02 185.92&#10;  Q 248.58 181.03 253.88 177.71&#10;  L 259.00 173.40&#10;  Q 259.69 172.82 259.04 172.20&#10;  L 256.48 169.75&#10;  Q 255.58 168.89 254.84 169.89&#10;  Q 253.91 171.14 252.46 171.46&#10;  Q 251.97 169.73 251.41 169.32&#10;  Q 247.16 166.23 243.58 162.54&#10;  A 3.83 3.79 65.4 0 0 240.53 161.39&#10;  L 227.79 162.48&#10;  Z&#10;  M 427.74 173.92&#10;  C 426.19 172.39 424.25 169.68 421.71 170.95&#10;  Q 419.18 172.21 418.60 175.43&#10;  Q 418.66 178.55 420.58 180.12&#10;  Q 421.32 180.71 423.23 181.14&#10;  Q 424.54 181.43 426.03 181.92&#10;  Q 427.01 182.01 427.61 182.63&#10;  Q 427.98 183.00 427.89 183.52&#10;  L 427.42 186.29&#10;  C 425.71 190.53 423.04 193.19 419.58 196.09&#10;  C 417.27 198.03 415.05 201.23 412.64 202.65&#10;  Q 409.61 204.43 409.50 204.58&#10;  Q 409.15 205.06 409.68 205.11&#10;  Q 411.65 205.28 412.46 204.95&#10;  Q 417.37 202.97 422.53 202.06&#10;  L 427.16 200.33&#10;  L 442.50 196.15&#10;  Q 452.88 194.04 453.06 184.24&#10;  Q 453.10 182.15 453.09 177.50&#10;  Q 453.08 172.44 451.05 166.15&#10;  C 450.76 165.25 450.84 164.30 450.66 163.39&#10;  Q 450.56 162.90 450.07 162.77&#10;  Q 447.52 162.07 444.67 162.47&#10;  L 429.20 163.05&#10;  A 0.52 0.52 0.0 0 0 428.86 163.95&#10;  Q 430.18 165.20 430.67 167.25&#10;  Q 431.07 168.92 429.28 173.63&#10;  Q 429.09 174.13 428.56 174.13&#10;  Q 428.20 174.13 427.74 173.92&#10;  Z&#10;  M 466.48 190.97&#10;  Q 472.03 190.17 477.31 188.41&#10;  Q 478.71 187.95 479.39 186.17&#10;  Q 481.30 181.24 481.37 177.31&#10;  Q 481.43 173.44 481.30 166.10&#10;  A 0.64 0.62 -84.9 0 0 480.80 165.49&#10;  Q 470.32 163.34 459.62 162.94&#10;  L 453.97 162.76&#10;  A 0.59 0.59 0.0 0 0 453.42 163.60&#10;  Q 454.94 166.78 455.18 170.76&#10;  Q 455.91 182.96 453.39 192.78&#10;  Q 453.12 193.83 454.18 193.60&#10;  L 466.48 190.97&#10;  Z&#10;  M 262.50 178.93&#10;  Q 260.10 179.76 258.32 180.92&#10;  A 1.05 1.05 0.0 0 0 258.53 182.78&#10;  Q 260.03 183.34 261.84 183.44&#10;  C 264.71 183.60 266.87 183.78 268.42 181.20&#10;  A 0.43 0.43 0.0 0 0 268.25 180.59&#10;  Q 267.57 180.25 265.43 179.33&#10;  Q 263.62 178.55 262.50 178.93&#10;  Z&#10;  M 275.73 269.87&#10;  Q 284.24 272.97 292.54 272.95&#10;  Q 294.29 272.94 300.21 272.71&#10;  Q 305.13 272.51 307.83 272.10&#10;  Q 315.68 270.90 326.12 269.20&#10;  Q 332.57 268.16 335.59 267.21&#10;  C 342.82 264.94 347.65 263.79 353.78 261.44&#10;  Q 358.88 259.48 362.77 258.42&#10;  C 365.50 257.68 367.93 256.43 370.69 255.32&#10;  Q 374.37 253.86 376.57 252.76&#10;  Q 392.83 244.66 406.67 235.18&#10;  Q 408.87 233.67 406.22 233.86&#10;  Q 375.19 236.13 343.63 231.33&#10;  Q 336.14 230.19 327.63 228.13&#10;  Q 326.44 227.85 311.61 224.30&#10;  Q 307.53 223.32 296.00 220.03&#10;  Q 290.46 218.44 282.59 217.33&#10;  Q 276.36 216.44 270.16 214.28&#10;  Q 262.96 211.77 262.91 211.75&#10;  Q 255.79 209.37 243.89 206.70&#10;  Q 228.82 203.31 224.67 202.13&#10;  Q 214.19 199.14 200.59 194.48&#10;  Q 199.57 194.13 199.62 195.21&#10;  Q 199.64 195.89 200.09 197.00&#10;  Q 201.26 199.95 205.59 212.11&#10;  Q 207.82 218.39 210.20 222.49&#10;  C 214.26 229.48 218.69 238.57 224.80 245.17&#10;  C 226.98 247.53 228.42 250.22 230.10 252.87&#10;  Q 231.60 255.23 234.85 258.25&#10;  Q 238.83 261.95 242.24 266.19&#10;  C 243.70 268.00 245.93 269.69 247.77 271.06&#10;  Q 249.58 272.40 251.70 274.73&#10;  Q 255.50 278.91 260.42 282.27&#10;  C 262.52 283.70 263.76 285.43 265.62 287.45&#10;  Q 266.44 288.35 268.98 290.21&#10;  Q 274.27 294.09 277.72 297.91&#10;  Q 280.25 300.70 282.46 302.40&#10;  L 287.35 306.72&#10;  Q 290.99 309.94 294.55 313.50&#10;  Q 297.49 316.43 301.81 320.10&#10;  C 305.45 323.20 308.79 326.93 311.90 329.95&#10;  A 0.97 0.96 37.5 0 0 313.39 329.76&#10;  Q 315.74 325.89 319.29 323.03&#10;  Q 322.22 320.66 325.07 319.63&#10;  Q 329.62 318.00 329.71 317.96&#10;  Q 347.79 310.14 366.08 302.82&#10;  Q 371.71 300.57 381.44 294.77&#10;  Q 383.05 293.81 385.09 292.90&#10;  Q 387.71 291.73 388.71 290.96&#10;  Q 395.48 285.75 401.37 281.52&#10;  C 403.95 279.67 406.04 277.48 408.61 275.10&#10;  Q 411.39 272.54 407.86 273.90&#10;  Q 403.30 275.65 394.15 278.47&#10;  C 389.21 280.00 383.68 280.75 379.34 281.79&#10;  Q 374.78 282.88 368.09 283.67&#10;  Q 362.56 284.33 355.00 285.29&#10;  Q 352.74 285.58 337.33 285.61&#10;  Q 326.11 285.64 319.75 284.70&#10;  Q 306.88 282.81 294.78 279.64&#10;  C 288.46 277.98 280.36 273.62 275.80 271.40&#10;  A 0.98 0.98 0.0 0 1 275.29 270.82&#10;  L 275.16 270.44&#10;  Q 274.88 269.56 275.73 269.87&#10;  Z&#10;  M 160.1211 319.6037&#10;  A 1.00 0.36 25.7 0 0 159.3761 318.8456&#10;  A 1.00 0.36 25.7 0 0 158.3189 318.7363&#10;  A 1.00 0.36 25.7 0 0 159.0639 319.4944&#10;  A 1.00 0.36 25.7 0 0 160.1211 319.6037&#10;  Z&#10;  M 163.06 321.14&#10;  C 164.65 321.68 166.93 324.12 167.91 325.28&#10;  C 171.30 329.23 175.19 331.10 180.34 331.43&#10;  A 0.56 0.55 81.4 0 0 180.89 330.68&#10;  C 179.83 327.91 179.05 325.31 176.64 323.63&#10;  C 172.23 320.56 169.30 320.32 163.26 319.16&#10;  Q 160.58 318.65 162.28 320.83&#10;  Q 162.34 320.90 163.06 321.14&#10;  Z&#10;  M 354.46 332.15&#10;  Q 354.69 331.58 354.08 331.55&#10;  Q 351.48 331.45 350.63 331.63&#10;  Q 336.92 334.47 322.55 332.66&#10;  C 320.79 332.44 318.92 332.96 317.17 333.12&#10;  A 0.62 0.62 0.0 0 0 316.80 334.19&#10;  L 333.82 350.45&#10;  A 1.40 1.39 -45.1 0 0 335.76 350.44&#10;  Q 351.44 335.36 354.07 332.83&#10;  Q 354.27 332.64 354.46 332.15&#10;  Z&#10;  M 85.77 692.03&#10;  Q 88.35 693.06 90.57 693.31&#10;  Q 98.10 694.15 106.42 695.35&#10;  Q 115.39 696.64 122.21 697.27&#10;  Q 144.13 699.29 168.23 702.37&#10;  Q 189.68 705.11 211.26 706.27&#10;  Q 221.34 706.82 231.22 707.59&#10;  Q 245.97 708.74 260.26 708.98&#10;  C 264.12 709.05 268.92 709.50 273.28 709.56&#10;  Q 289.40 709.76 310.00 709.59&#10;  Q 317.62 709.53 357.75 706.19&#10;  Q 364.65 705.62 373.37 704.02&#10;  Q 378.93 703.01 386.19 702.30&#10;  Q 391.29 701.80 399.01 700.47&#10;  Q 415.89 697.55 428.72 695.18&#10;  Q 436.73 693.69 448.18 690.67&#10;  Q 463.36 686.67 479.68 683.18&#10;  Q 484.10 682.23 503.25 676.18&#10;  Q 505.42 675.49 508.87 674.64&#10;  C 513.67 673.46 519.14 671.33 522.85 670.52&#10;  C 526.90 669.64 530.42 668.86 534.45 667.33&#10;  Q 549.92 661.49 558.67 659.24&#10;  Q 561.24 658.58 561.62 658.49&#10;  Q 563.20 658.08 564.51 657.57&#10;  Q 578.69 651.96 596.06 645.56&#10;  C 598.12 644.80 601.17 644.16 603.43 643.19&#10;  Q 611.09 639.92 618.12 636.57&#10;  A 0.51 0.50 47.2 0 0 618.15 635.68&#10;  C 615.82 634.35 612.87 633.22 610.94 631.90&#10;  Q 601.53 625.45 597.17 622.69&#10;  Q 593.66 620.45 589.45 616.25&#10;  Q 584.16 610.98 581.87 608.95&#10;  C 578.12 605.63 576.00 601.67 572.87 598.28&#10;  Q 569.63 594.77 566.50 589.54&#10;  Q 559.81 578.38 558.29 575.82&#10;  Q 554.83 569.96 551.27 561.50&#10;  Q 545.52 547.82 544.40 543.85&#10;  Q 542.34 536.56 541.82 534.18&#10;  Q 540.50 528.04 536.89 505.07&#10;  Q 534.07 487.12 535.62 461.34&#10;  Q 536.04 454.30 537.56 446.33&#10;  Q 538.31 442.40 540.15 431.37&#10;  Q 540.23 430.85 539.72 430.76&#10;  Q 532.94 429.48 529.05 426.23&#10;  Q 524.58 422.49 520.67 417.07&#10;  Q 519.30 415.18 518.25 410.18&#10;  Q 517.95 404.23 518.10 398.00&#10;  Q 518.16 395.50 517.94 393.01&#10;  Q 517.79 391.41 516.61 390.39&#10;  Q 514.15 388.25 511.53 386.44&#10;  C 508.45 383.73 504.60 379.54 503.61 375.53&#10;  Q 502.84 372.45 501.99 370.85&#10;  Q 500.44 367.90 500.01 363.80&#10;  Q 499.15 355.52 499.36 350.41&#10;  Q 499.41 349.37 498.37 349.38&#10;  Q 492.20 349.47 478.46 350.37&#10;  Q 465.33 351.23 458.55 351.48&#10;  Q 427.95 352.59 398.09 352.74&#10;  Q 388.20 352.79 378.91 353.11&#10;  Q 373.05 353.31 359.72 353.32&#10;  Q 359.21 353.32 358.83 353.64&#10;  Q 352.27 359.11 351.33 360.34&#10;  Q 348.43 364.13 345.73 366.03&#10;  Q 343.98 367.27 342.34 369.53&#10;  Q 340.94 371.46 338.68 373.17&#10;  Q 338.28 373.46 337.94 373.11&#10;  Q 332.71 367.61 328.34 361.17&#10;  C 326.55 358.54 324.20 356.62 322.58 354.41&#10;  C 321.39 352.77 320.69 352.87 318.50 352.74&#10;  Q 311.33 352.34 301.84 351.89&#10;  Q 292.64 351.46 285.20 350.90&#10;  Q 259.47 348.98 234.49 347.78&#10;  Q 227.29 347.44 214.53 346.52&#10;  Q 205.42 345.86 190.13 344.88&#10;  Q 182.83 344.42 176.13 342.26&#10;  Q 175.29 341.99 175.39 342.87&#10;  Q 175.71 345.65 176.15 352.06&#10;  C 176.36 355.18 175.80 357.63 175.59 360.82&#10;  C 175.37 364.11 174.29 367.48 172.58 370.87&#10;  Q 169.74 376.52 168.13 380.19&#10;  C 166.18 384.65 161.40 385.18 159.27 389.05&#10;  C 156.82 393.48 156.97 397.33 156.65 403.14&#10;  Q 156.54 405.32 154.60 412.31&#10;  Q 153.57 416.03 151.08 418.51&#10;  Q 143.14 426.42 133.09 428.02&#10;  Q 131.46 428.28 131.73 429.91&#10;  Q 132.52 434.56 133.24 436.89&#10;  Q 134.14 439.80 134.60 443.71&#10;  C 135.17 448.55 137.18 455.09 137.71 460.44&#10;  Q 138.85 471.79 139.91 478.26&#10;  Q 141.26 486.52 141.66 496.12&#10;  Q 142.46 515.46 142.30 528.77&#10;  Q 142.29 529.66 141.93 544.77&#10;  Q 141.66 556.03 141.32 560.75&#10;  Q 140.12 577.60 136.84 596.72&#10;  Q 135.71 603.32 133.30 613.20&#10;  Q 132.80 615.25 129.37 629.61&#10;  C 128.86 631.74 127.98 634.57 126.89 636.97&#10;  Q 123.31 644.84 120.59 652.15&#10;  C 119.18 655.93 117.55 658.64 115.59 662.36&#10;  C 113.76 665.84 110.37 668.84 108.68 671.69&#10;  Q 106.43 675.50 103.56 678.37&#10;  C 101.38 680.55 97.31 682.18 94.96 684.42&#10;  C 92.54 686.73 90.30 687.70 87.26 689.60&#10;  C 85.88 690.47 83.94 691.09 82.73 691.26&#10;  Q 80.47 691.58 82.71 692.02&#10;  Q 84.29 692.33 85.77 692.03&#10;  Z&#10;  M 63.99 686.37&#10;  Q 74.11 683.34 79.22 680.99&#10;  Q 81.27 680.04 83.81 677.57&#10;  Q 86.08 675.36 88.09 673.86&#10;  Q 91.43 671.36 94.15 668.64&#10;  Q 99.34 664.14 101.99 658.98&#10;  Q 104.59 653.94 107.91 645.67&#10;  Q 109.70 641.20 112.47 636.12&#10;  Q 115.09 631.31 116.73 626.49&#10;  Q 122.80 608.68 126.89 590.65&#10;  Q 128.01 585.67 128.34 581.69&#10;  Q 128.73 576.78 129.43 572.65&#10;  Q 130.15 568.30 130.33 563.34&#10;  C 130.52 558.11 130.34 553.30 131.19 548.25&#10;  L 131.38 542.01&#10;  Q 131.40 541.08 130.50 540.85&#10;  Q 120.10 538.11 109.56 534.87&#10;  Q 107.76 534.31 104.93 533.75&#10;  Q 104.69 533.70 100.25 532.72&#10;  Q 99.72 532.60 100.06 533.03&#10;  Q 105.22 539.53 107.08 545.12&#10;  Q 108.16 548.41 110.79 555.52&#10;  Q 113.32 562.40 113.97 566.01&#10;  Q 116.07 577.62 113.48 588.27&#10;  Q 108.78 607.60 107.16 613.42&#10;  Q 106.85 614.54 105.04 618.41&#10;  Q 102.98 620.27 100.61 621.86&#10;  Q 98.40 623.35 94.60 629.61&#10;  Q 94.14 630.37 93.51 631.03&#10;  Q 92.74 631.85 92.30 632.36&#10;  Q 86.55 634.83 81.54 636.96&#10;  Q 75.90 639.37 73.57 639.89&#10;  Q 57.46 643.49 45.90 632.65&#10;  C 44.26 631.11 42.91 629.03 41.39 627.10&#10;  Q 39.54 624.76 38.49 622.64&#10;  Q 37.37 620.37 36.19 617.70&#10;  Q 35.00 612.02 34.99 605.50&#10;  Q 34.98 601.63 36.64 598.13&#10;  Q 38.16 594.94 39.84 591.82&#10;  C 41.15 589.37 42.48 585.33 44.60 582.62&#10;  Q 50.63 574.91 56.51 570.30&#10;  Q 60.23 567.37 64.37 568.65&#10;  Q 67.06 569.47 67.01 572.22&#10;  Q 66.93 576.29 65.07 579.85&#10;  Q 60.55 588.55 58.03 591.96&#10;  Q 55.70 595.11 55.27 597.52&#10;  Q 54.69 600.78 55.16 604.05&#10;  Q 56.44 613.01 62.04 620.38&#10;  Q 65.16 624.48 70.54 623.28&#10;  Q 77.71 621.67 81.92 618.40&#10;  C 84.42 616.46 86.69 613.25 88.73 611.28&#10;  C 91.54 608.55 93.43 605.30 94.91 601.67&#10;  Q 103.14 581.45 97.92 560.64&#10;  Q 95.73 551.92 94.42 548.73&#10;  Q 90.32 538.74 83.86 533.89&#10;  Q 79.37 530.52 72.46 528.97&#10;  Q 67.59 527.88 61.32 529.71&#10;  Q 53.21 532.08 49.69 534.19&#10;  Q 45.68 536.59 44.76 537.77&#10;  Q 40.68 543.05 35.23 548.23&#10;  Q 33.98 549.43 31.86 553.82&#10;  Q 30.74 556.14 28.85 559.55&#10;  Q 24.93 566.62 21.35 576.19&#10;  Q 18.39 584.11 17.02 593.89&#10;  Q 15.21 606.82 14.94 612.62&#10;  Q 14.08 630.96 17.82 651.47&#10;  Q 18.50 655.19 23.01 664.03&#10;  Q 24.26 666.47 25.76 668.26&#10;  Q 26.87 669.57 28.49 672.12&#10;  Q 32.03 677.69 37.65 680.86&#10;  Q 40.85 682.66 51.72 685.55&#10;  Q 56.13 686.71 63.99 686.37&#10;  Z"/>
<path fill="#282828" d="&#10;  M 155.27 38.48&#10;  Q 153.47 37.10 151.17 37.20&#10;  Q 149.06 37.29 148.56 37.07&#10;  C 146.14 35.96 144.08 33.33 142.79 31.08&#10;  Q 140.63 27.31 140.01 26.50&#10;  C 137.48 23.21 131.71 17.46 128.28 13.00&#10;  Q 126.79 11.08 129.17 11.60&#10;  Q 133.25 12.51 137.23 13.78&#10;  Q 140.67 14.88 145.34 16.03&#10;  Q 163.74 20.58 179.17 23.32&#10;  Q 180.11 23.49 179.29 23.99&#10;  Q 175.32 26.40 172.19 30.48&#10;  C 170.65 32.47 170.33 37.35 170.61 39.97&#10;  Q 171.61 49.16 171.18 56.81&#10;  A 0.72 0.72 0.0 0 1 169.96 57.29&#10;  L 154.41 42.43&#10;  A 1.36 1.35 -40.1 0 1 154.59 40.33&#10;  Q 155.06 40.01 155.45 39.33&#10;  Q 155.73 38.83 155.27 38.48&#10;  Z"/>
<path fill="#282828" d="&#10;  M 195.23 35.73&#10;  A 0.58 0.57 -34.5 0 1 195.11 36.37&#10;  Q 194.30 37.21 193.63 35.39&#10;  Q 192.95 33.54 191.29 32.47&#10;  Q 188.22 30.49 184.25 28.11&#10;  A 0.20 0.19 13.8 0 1 184.16 27.97&#10;  L 184.12 27.48&#10;  Q 184.09 27.15 184.41 27.27&#10;  Q 193.07 30.71 195.23 35.73&#10;  Z"/>
<path fill="#282828" d="&#10;  M 214.87 104.51&#10;  C 216.23 101.05 217.98 97.51 219.92 94.58&#10;  Q 225.98 85.46 233.05 75.79&#10;  Q 234.56 73.73 238.97 69.55&#10;  C 241.57 67.09 243.86 62.77 246.58 60.82&#10;  C 250.21 58.22 252.58 56.54 255.41 53.50&#10;  Q 257.54 51.20 259.29 50.03&#10;  Q 271.43 41.93 285.07 36.33&#10;  Q 292.56 33.26 299.81 31.85&#10;  Q 316.34 28.66 333.98 30.31&#10;  Q 341.28 30.99 349.65 33.28&#10;  Q 357.89 35.53 364.69 38.69&#10;  Q 374.19 43.10 377.90 44.53&#10;  C 381.56 45.93 383.84 49.01 386.86 51.34&#10;  Q 391.00 54.53 392.12 55.56&#10;  Q 395.07 58.27 399.23 63.19&#10;  Q 400.07 64.17 398.78 64.30&#10;  Q 386.69 65.52 366.22 68.38&#10;  Q 358.29 69.49 349.22 71.29&#10;  Q 342.30 72.67 332.25 74.51&#10;  Q 327.98 75.29 315.39 78.22&#10;  Q 309.14 79.68 299.13 81.63&#10;  Q 294.79 82.48 282.88 85.16&#10;  Q 281.80 85.40 279.07 86.20&#10;  Q 277.62 86.62 262.65 90.21&#10;  Q 256.85 91.60 252.32 92.98&#10;  C 248.05 94.28 243.27 94.90 238.46 96.38&#10;  Q 227.18 99.86 216.97 104.72&#10;  Q 216.13 105.11 215.31 105.14&#10;  A 0.46 0.46 0.0 0 1 214.87 104.51&#10;  Z"/>
<path fill="#282828" d="&#10;  M 195.64 45.71&#10;  A 0.30 0.30 0.0 0 1 195.35 45.40&#10;  L 195.35 45.19&#10;  A 13.85 1.50 -88.3 0 1 197.26 31.39&#10;  L 197.50 31.40&#10;  A 13.85 1.50 -88.3 0 1 198.59 45.29&#10;  L 198.59 45.50&#10;  A 0.30 0.30 0.0 0 1 198.28 45.79&#10;  L 195.64 45.71&#10;  Z"/>
<path fill="#282828" d="&#10;  M 181.99 39.07&#10;  Q 180.62 39.32 179.53 40.26&#10;  A 0.89 0.88 -25.8 0 1 178.08 39.76&#10;  Q 177.77 38.07 179.84 37.92&#10;  Q 183.11 37.68 186.64 39.31&#10;  Q 187.11 39.53 187.59 39.37&#10;  Q 188.21 39.17 189.73 38.52&#10;  Q 192.25 37.46 193.57 38.89&#10;  A 1.06 1.06 0.0 0 1 192.88 40.66&#10;  L 186.94 41.16&#10;  Q 186.45 41.20 186.04 40.94&#10;  C 184.61 40.02 183.30 38.83 181.99 39.07&#10;  Z"/>
<path fill="#282828" d="&#10;  M 179.93 47.19&#10;  Q 183.05 47.56 185.57 45.04&#10;  Q 185.97 44.64 186.01 44.21&#10;  L 186.08 43.44&#10;  Q 186.16 42.48 186.47 43.42&#10;  Q 186.96 44.87 187.10 45.69&#10;  A 0.80 0.75 68.2 0 1 186.81 46.43&#10;  L 183.71 48.71&#10;  Q 183.28 49.03 182.75 49.03&#10;  L 178.27 49.03&#10;  A 0.75 0.74 -90.0 0 1 177.53 48.28&#10;  L 177.53 42.42&#10;  Q 177.53 41.23 178.68 40.91&#10;  L 179.28 40.75&#10;  A 1.23 1.01 79.8 0 1 180.57 41.85&#10;  Q 180.76 43.49 179.22 45.55&#10;  A 1.03 1.03 0.0 0 0 179.93 47.19&#10;  Z"/>
<path fill="#282828" d="&#10;  M 216.85 63.08&#10;  Q 216.17 64.81 214.87 64.44&#10;  Q 214.34 64.29 214.52 63.77&#10;  Q 214.96 62.46 216.85 63.08&#10;  Z"/>
<path fill="#282828" d="&#10;  M 112.51 94.82&#10;  Q 113.89 95.51 114.24 96.06&#10;  Q 116.28 99.19 113.00 97.49&#10;  Q 112.58 97.27 111.93 96.10&#10;  Q 111.29 94.94 110.65 94.41&#10;  C 106.45 90.99 101.85 87.91 97.46 85.60&#10;  Q 94.37 83.97 92.46 81.95&#10;  Q 89.47 78.80 86.10 75.94&#10;  Q 84.68 74.72 86.55 74.77&#10;  Q 88.11 74.81 96.04 74.96&#10;  Q 99.23 75.01 105.48 74.38&#10;  C 110.69 73.85 116.95 73.58 122.60 72.66&#10;  C 125.53 72.19 129.39 71.47 132.82 71.20&#10;  Q 144.80 70.27 161.25 69.12&#10;  Q 165.00 68.86 177.50 69.56&#10;  Q 181.66 69.79 191.47 68.35&#10;  C 195.99 67.69 200.64 65.86 205.36 65.00&#10;  Q 205.51 64.97 205.52 65.12&#10;  L 205.55 65.49&#10;  Q 205.57 65.65 205.41 65.71&#10;  Q 201.36 67.25 197.42 69.06&#10;  Q 194.25 70.52 189.97 71.24&#10;  Q 182.13 72.56 179.75 72.68&#10;  Q 167.22 73.33 155.55 76.83&#10;  Q 150.07 78.47 145.42 80.96&#10;  Q 141.19 83.21 138.88 84.22&#10;  Q 136.69 85.17 132.53 87.83&#10;  Q 128.07 90.70 120.78 94.76&#10;  Q 118.64 95.96 116.56 95.85&#10;  A 1.50 1.47 64.8 0 1 115.78 95.56&#10;  Q 114.10 94.32 112.61 94.37&#10;  Q 111.68 94.40 112.51 94.82&#10;  Z"/>
<path fill="#282828" d="&#10;  M 448.79 134.14&#10;  Q 447.37 134.13 444.40 134.90&#10;  Q 436.71 136.90 430.60 139.19&#10;  Q 425.56 141.08 421.81 141.80&#10;  C 416.55 142.82 414.04 143.37 409.73 143.44&#10;  Q 402.87 143.55 400.03 143.67&#10;  Q 393.66 143.92 390.35 143.95&#10;  Q 356.76 144.27 304.28 144.87&#10;  Q 293.14 144.99 285.77 145.65&#10;  Q 279.75 146.19 273.43 146.63&#10;  Q 265.47 147.18 261.11 147.34&#10;  Q 238.47 148.20 227.57 149.56&#10;  Q 218.61 150.68 207.06 151.22&#10;  Q 203.24 151.40 200.30 152.08&#10;  A 0.69 0.69 0.0 0 1 199.48 151.61&#10;  Q 199.15 150.58 199.37 148.27&#10;  Q 199.92 142.70 200.94 139.66&#10;  Q 202.52 134.97 203.27 131.78&#10;  C 204.27 127.51 204.86 124.45 206.27 121.23&#10;  Q 208.79 115.49 212.78 108.31&#10;  C 213.66 106.73 214.75 106.12 216.66 106.02&#10;  Q 231.63 105.27 234.75 105.24&#10;  Q 267.54 105.01 302.32 105.79&#10;  Q 306.19 105.87 311.16 106.31&#10;  Q 311.66 106.35 320.00 106.78&#10;  Q 350.11 108.30 383.27 112.86&#10;  Q 390.39 113.84 401.44 116.57&#10;  Q 408.71 118.37 413.46 119.37&#10;  Q 421.83 121.14 425.19 122.66&#10;  Q 435.70 127.44 450.12 133.39&#10;  A 0.30 0.30 0.0 0 1 450.11 133.95&#10;  Q 449.55 134.15 448.79 134.14&#10;  Z"/>
<path fill="#fafdbc" d="&#10;  M 386.57 187.88&#10;  Q 385.39 188.02 384.80 189.25&#10;  Q 384.45 189.97 385.28 190.12&#10;  Q 384.53 191.52 385.36 193.42&#10;  Q 387.04 197.30 390.48 198.84&#10;  Q 391.52 199.31 393.84 199.63&#10;  Q 395.54 199.86 397.27 200.22&#10;  Q 397.11 200.49 397.21 200.70&#10;  A 0.64 0.64 0.0 0 0 397.91 201.04&#10;  Q 398.65 200.88 399.82 201.21&#10;  Q 401.02 201.75 402.18 203.32&#10;  Q 402.98 204.40 402.47 205.16&#10;  Q 394.63 207.38 386.72 209.28&#10;  Q 377.95 211.38 370.71 211.91&#10;  Q 361.59 212.58 358.27 212.91&#10;  Q 352.42 213.48 345.77 213.23&#10;  Q 329.50 212.64 317.55 211.59&#10;  Q 312.71 211.17 307.90 210.24&#10;  Q 300.68 208.85 298.19 208.62&#10;  Q 290.16 207.90 283.27 206.59&#10;  C 278.89 205.75 274.78 205.64 269.99 205.05&#10;  Q 269.02 204.93 268.28 204.40&#10;  L 268.22 204.00&#10;  Q 268.54 203.91 268.87 204.01&#10;  Q 277.18 203.59 283.13 200.59&#10;  Q 286.21 199.04 291.33 194.37&#10;  Q 291.88 193.08 292.39 191.72&#10;  Q 292.86 190.46 293.03 188.95&#10;  Q 293.30 186.72 293.60 184.45&#10;  Q 297.56 186.00 301.76 186.41&#10;  Q 306.49 186.86 307.56 187.14&#10;  Q 310.86 187.98 313.61 188.04&#10;  A 2.10 2.08 -75.7 0 0 315.54 186.88&#10;  L 317.48 183.03&#10;  A 1.62 1.62 0.0 0 0 316.01 180.68&#10;  C 314.02 180.72 310.96 180.84 309.01 179.89&#10;  Q 301.76 176.36 296.91 172.50&#10;  Q 294.97 170.97 288.69 168.54&#10;  Q 285.55 167.33 280.20 164.68&#10;  Q 273.32 161.27 268.73 159.75&#10;  A 0.53 0.49 2.9 0 1 268.40 159.41&#10;  Q 268.29 158.99 268.73 158.95&#10;  Q 272.11 158.70 283.00 158.63&#10;  Q 377.17 158.03 406.50 158.68&#10;  Q 408.00 158.71 408.77 158.88&#10;  Q 409.73 159.10 408.83 159.51&#10;  Q 404.08 161.66 397.81 165.09&#10;  C 394.87 166.70 391.82 167.03 389.01 168.61&#10;  Q 383.75 171.57 378.46 174.48&#10;  Q 377.29 175.12 367.92 179.71&#10;  Q 362.59 182.31 357.74 185.66&#10;  Q 355.83 186.97 358.14 187.16&#10;  C 361.11 187.39 363.78 186.66 366.71 186.46&#10;  Q 374.80 185.88 380.19 185.16&#10;  Q 380.94 185.06 380.42 185.60&#10;  L 379.47 186.59&#10;  Q 379.33 186.74 379.32 186.94&#10;  Q 379.31 187.10 379.38 187.24&#10;  Q 379.55 187.62 379.96 187.64&#10;  L 386.57 187.88&#10;  Z"/>
<path fill="#282828" d="&#10;  M 427.39 159.86&#10;  A 0.42 0.42 0.0 0 1 427.83 160.46&#10;  L 427.57 160.98&#10;  A 0.87 0.86 -77.7 0 1 426.83 161.46&#10;  Q 425.84 161.51 425.36 161.28&#10;  Q 423.58 160.44 425.51 160.15&#10;  L 427.39 159.86&#10;  Z"/>
<path fill="#fcfcfd" d="&#10;  M 252.46 171.46&#10;  Q 252.27 174.04 253.88 177.71&#10;  Q 248.58 181.03 247.02 185.92&#10;  Q 246.70 186.93 247.00 187.60&#10;  Q 247.37 188.40 247.92 189.11&#10;  Q 249.29 190.88 250.92 189.17&#10;  Q 251.40 188.67 252.28 187.65&#10;  Q 254.67 193.44 258.22 194.27&#10;  L 264.46 200.69&#10;  Q 264.88 201.12 264.31 200.95&#10;  Q 262.70 200.47 261.58 200.86&#10;  Q 260.73 201.16 258.94 200.86&#10;  Q 242.97 198.13 227.42 193.65&#10;  Q 225.98 186.26 226.54 179.01&#10;  Q 227.18 170.74 227.79 162.48&#10;  L 240.53 161.39&#10;  A 3.83 3.79 65.4 0 1 243.58 162.54&#10;  Q 247.16 166.23 251.41 169.32&#10;  Q 251.97 169.73 252.46 171.46&#10;  Z"/>
<path fill="#fafdbc" d="&#10;  M 444.67 162.47&#10;  Q 446.10 163.22 446.83 164.40&#10;  Q 447.89 166.11 449.39 168.41&#10;  A 1.52 1.51 -22.5 0 1 448.43 170.72&#10;  Q 445.69 171.30 446.20 174.23&#10;  Q 441.70 169.62 435.11 169.60&#10;  A 1.87 1.87 0.0 0 0 433.34 172.08&#10;  Q 434.30 174.83 432.79 177.17&#10;  C 432.04 178.34 429.90 179.46 429.46 181.22&#10;  A 1.50 1.44 40.2 0 0 429.56 182.16&#10;  Q 431.42 186.07 431.05 188.55&#10;  Q 430.55 191.82 427.16 200.33&#10;  L 422.53 202.06&#10;  Q 423.65 200.17 423.71 197.97&#10;  Q 423.72 197.46 424.12 197.15&#10;  Q 429.40 193.07 428.66 186.06&#10;  Q 428.61 185.55 428.18 185.82&#10;  L 427.42 186.29&#10;  L 427.89 183.52&#10;  Q 427.98 183.00 427.61 182.63&#10;  Q 427.01 182.01 426.03 181.92&#10;  Q 428.29 180.86 429.40 176.33&#10;  A 1.45 1.45 0.0 0 0 428.12 174.54&#10;  L 425.99 174.37&#10;  L 427.74 173.92&#10;  Q 428.20 174.13 428.56 174.13&#10;  Q 429.09 174.13 429.28 173.63&#10;  Q 431.07 168.92 430.67 167.25&#10;  Q 430.18 165.20 428.86 163.95&#10;  A 0.52 0.52 0.0 0 1 429.20 163.05&#10;  L 444.67 162.47&#10;  Z"/>
<path fill="#939b9f" d="&#10;  M 442.50 196.15&#10;  Q 447.72 185.18 446.20 174.23&#10;  Q 445.69 171.30 448.43 170.72&#10;  A 1.52 1.51 -22.5 0 0 449.39 168.41&#10;  Q 447.89 166.11 446.83 164.40&#10;  Q 446.10 163.22 444.67 162.47&#10;  Q 447.52 162.07 450.07 162.77&#10;  Q 450.56 162.90 450.66 163.39&#10;  C 450.84 164.30 450.76 165.25 451.05 166.15&#10;  Q 453.08 172.44 453.09 177.50&#10;  Q 453.10 182.15 453.06 184.24&#10;  Q 452.88 194.04 442.50 196.15&#10;  Z"/>
<path fill="#fafdbc" d="&#10;  M 227.79 162.48&#10;  Q 227.18 170.74 226.54 179.01&#10;  Q 225.98 186.26 227.42 193.65&#10;  Q 221.02 192.62 219.24 192.23&#10;  Q 210.58 190.32 202.59 187.88&#10;  Q 200.85 182.71 200.70 179.50&#10;  Q 200.38 172.60 202.33 164.35&#10;  L 227.79 162.48&#10;  Z"/>
<path fill="#fbc965" d="&#10;  M 459.62 162.94&#10;  L 459.55 167.13&#10;  Q 459.55 167.67 460.03 167.91&#10;  Q 461.84 168.81 463.37 168.79&#10;  A 1.60 1.60 0.0 0 1 464.99 170.40&#10;  Q 464.90 181.15 466.48 190.97&#10;  L 454.18 193.60&#10;  Q 453.12 193.83 453.39 192.78&#10;  Q 455.91 182.96 455.18 170.76&#10;  Q 454.94 166.78 453.42 163.60&#10;  A 0.59 0.59 0.0 0 1 453.97 162.76&#10;  L 459.62 162.94&#10;  Z"/>
<path fill="#fe7325" d="&#10;  M 466.48 190.97&#10;  Q 464.90 181.15 464.99 170.40&#10;  A 1.60 1.60 0.0 0 0 463.37 168.79&#10;  Q 461.84 168.81 460.03 167.91&#10;  Q 459.55 167.67 459.55 167.13&#10;  L 459.62 162.94&#10;  Q 470.32 163.34 480.80 165.49&#10;  A 0.64 0.62 -84.9 0 1 481.30 166.10&#10;  Q 481.43 173.44 481.37 177.31&#10;  Q 481.30 181.24 479.39 186.17&#10;  Q 478.71 187.95 477.31 188.41&#10;  Q 472.03 190.17 466.48 190.97&#10;  Z"/>
<path fill="#fe7325" d="&#10;  M 202.33 164.35&#10;  Q 200.38 172.60 200.70 179.50&#10;  Q 200.85 182.71 202.59 187.88&#10;  Q 198.97 187.52 196.78 186.19&#10;  Q 195.22 185.24 194.64 182.77&#10;  Q 192.67 174.34 194.56 165.73&#10;  A 0.67 0.66 -86.9 0 1 195.14 165.20&#10;  L 202.33 164.35&#10;  Z"/>
<path fill="#939b9f" d="&#10;  M 253.88 177.71&#10;  Q 252.27 174.04 252.46 171.46&#10;  Q 253.91 171.14 254.84 169.89&#10;  Q 255.58 168.89 256.48 169.75&#10;  L 259.04 172.20&#10;  Q 259.69 172.82 259.00 173.40&#10;  L 253.88 177.71&#10;  Z"/>
<path fill="#fcfcfd" d="&#10;  M 446.20 174.23&#10;  Q 447.72 185.18 442.50 196.15&#10;  L 427.16 200.33&#10;  Q 430.55 191.82 431.05 188.55&#10;  Q 431.42 186.07 429.56 182.16&#10;  A 1.50 1.44 40.2 0 1 429.46 181.22&#10;  C 429.90 179.46 432.04 178.34 432.79 177.17&#10;  Q 434.30 174.83 433.34 172.08&#10;  A 1.87 1.87 0.0 0 1 435.11 169.60&#10;  Q 441.70 169.62 446.20 174.23&#10;  Z"/>
<path fill="#939b9f" d="&#10;  M 427.74 173.92&#10;  L 425.99 174.37&#10;  Q 421.98 174.31 418.60 175.43&#10;  Q 419.18 172.21 421.71 170.95&#10;  C 424.25 169.68 426.19 172.39 427.74 173.92&#10;  Z"/>
<path fill="#fcfcfd" d="&#10;  M 425.99 174.37&#10;  L 428.12 174.54&#10;  A 1.45 1.45 0.0 0 1 429.40 176.33&#10;  Q 428.29 180.86 426.03 181.92&#10;  Q 424.54 181.43 423.23 181.14&#10;  Q 421.32 180.71 420.58 180.12&#10;  Q 418.66 178.55 418.60 175.43&#10;  Q 421.98 174.31 425.99 174.37&#10;  Z"/>
<path fill="#939b9f" d="&#10;  M 258.22 194.27&#10;  Q 254.67 193.44 252.28 187.65&#10;  Q 252.49 188.48 253.14 187.94&#10;  Q 253.50 187.63 253.46 187.16&#10;  L 252.93 180.87&#10;  Q 252.88 180.35 253.16 179.89&#10;  Q 255.32 176.24 259.76 178.09&#10;  Q 260.23 178.29 259.86 178.64&#10;  Q 257.60 180.71 254.48 180.56&#10;  Q 253.54 180.51 253.78 180.99&#10;  Q 253.81 181.06 254.13 181.35&#10;  Q 254.44 181.63 254.51 182.05&#10;  C 254.80 183.77 254.68 186.07 255.63 188.19&#10;  Q 256.90 191.04 258.22 194.27&#10;  Z"/>
<path fill="#939b9f" d="&#10;  M 265.43 179.33&#10;  Q 267.57 180.25 268.25 180.59&#10;  A 0.43 0.43 0.0 0 1 268.42 181.20&#10;  C 266.87 183.78 264.71 183.60 261.84 183.44&#10;  Q 260.03 183.34 258.53 182.78&#10;  A 1.05 1.05 0.0 0 1 258.32 180.92&#10;  Q 260.10 179.76 262.50 178.93&#10;  Q 263.62 178.55 265.43 179.33&#10;  Z"/>
<path fill="#fcfcfd" d="&#10;  M 293.60 184.45&#10;  Q 293.30 186.72 293.03 188.95&#10;  Q 292.86 190.46 292.39 191.72&#10;  Q 291.88 193.08 291.33 194.37&#10;  L 283.25 198.91&#10;  A 2.12 1.95 71.8 0 1 280.32 197.27&#10;  Q 280.29 197.05 280.47 196.26&#10;  Q 286.89 190.81 292.23 184.02&#10;  Q 292.55 183.61 292.96 183.94&#10;  L 293.60 184.45&#10;  Z"/>
<path fill="#fcfcfd" d="&#10;  M 422.53 202.06&#10;  Q 417.37 202.97 412.46 204.95&#10;  Q 411.65 205.28 409.68 205.11&#10;  Q 409.15 205.06 409.50 204.58&#10;  Q 409.61 204.43 412.64 202.65&#10;  C 415.05 201.23 417.27 198.03 419.58 196.09&#10;  C 423.04 193.19 425.71 190.53 427.42 186.29&#10;  L 428.18 185.82&#10;  Q 428.61 185.55 428.66 186.06&#10;  Q 429.40 193.07 424.12 197.15&#10;  Q 423.72 197.46 423.71 197.97&#10;  Q 423.65 200.17 422.53 202.06&#10;  Z"/>
<path fill="#fcfcfd" d="&#10;  M 397.27 200.22&#10;  Q 395.54 199.86 393.84 199.63&#10;  Q 391.52 199.31 390.48 198.84&#10;  Q 387.04 197.30 385.36 193.42&#10;  Q 384.53 191.52 385.28 190.12&#10;  Q 386.29 189.34 386.57 187.88&#10;  Q 394.88 187.20 399.85 193.44&#10;  Q 400.51 194.27 400.05 195.52&#10;  C 399.46 197.12 398.61 198.97 397.27 200.22&#10;  Z"/>
<path fill="#939b9f" d="&#10;  M 386.57 187.88&#10;  Q 386.29 189.34 385.28 190.12&#10;  Q 384.45 189.97 384.80 189.25&#10;  Q 385.39 188.02 386.57 187.88&#10;  Z"/>
<path fill="#282828" d="&#10;  M 291.33 194.37&#10;  Q 286.21 199.04 283.13 200.59&#10;  Q 277.18 203.59 268.87 204.01&#10;  L 268.21 203.81&#10;  Q 267.57 203.62 268.21 203.43&#10;  Q 269.44 203.07 270.10 201.90&#10;  Q 270.35 201.45 270.84 201.30&#10;  Q 276.06 199.67 280.47 196.26&#10;  Q 280.29 197.05 280.32 197.27&#10;  A 2.12 1.95 71.8 0 0 283.25 198.91&#10;  L 291.33 194.37&#10;  Z"/>
<path fill="#282828" d="&#10;  M 275.73 269.87&#10;  Q 274.88 269.56 275.16 270.44&#10;  L 275.29 270.82&#10;  A 0.98 0.98 0.0 0 0 275.80 271.40&#10;  C 280.36 273.62 288.46 277.98 294.78 279.64&#10;  Q 306.88 282.81 319.75 284.70&#10;  Q 326.11 285.64 337.33 285.61&#10;  Q 352.74 285.58 355.00 285.29&#10;  Q 362.56 284.33 368.09 283.67&#10;  Q 374.78 282.88 379.34 281.79&#10;  C 383.68 280.75 389.21 280.00 394.15 278.47&#10;  Q 403.30 275.65 407.86 273.90&#10;  Q 411.39 272.54 408.61 275.10&#10;  C 406.04 277.48 403.95 279.67 401.37 281.52&#10;  Q 395.48 285.75 388.71 290.96&#10;  Q 387.71 291.73 385.09 292.90&#10;  Q 383.05 293.81 381.44 294.77&#10;  Q 371.71 300.57 366.08 302.82&#10;  Q 347.79 310.14 329.71 317.96&#10;  Q 329.62 318.00 325.07 319.63&#10;  Q 322.22 320.66 319.29 323.03&#10;  Q 315.74 325.89 313.39 329.76&#10;  A 0.97 0.96 37.5 0 1 311.90 329.95&#10;  C 308.79 326.93 305.45 323.20 301.81 320.10&#10;  Q 297.49 316.43 294.55 313.50&#10;  Q 290.99 309.94 287.35 306.72&#10;  L 282.46 302.40&#10;  Q 280.25 300.70 277.72 297.91&#10;  Q 274.27 294.09 268.98 290.21&#10;  Q 266.44 288.35 265.62 287.45&#10;  C 263.76 285.43 262.52 283.70 260.42 282.27&#10;  Q 255.50 278.91 251.70 274.73&#10;  Q 249.58 272.40 247.77 271.06&#10;  C 245.93 269.69 243.70 268.00 242.24 266.19&#10;  Q 238.83 261.95 234.85 258.25&#10;  Q 231.60 255.23 230.10 252.87&#10;  C 228.42 250.22 226.98 247.53 224.80 245.17&#10;  C 218.69 238.57 214.26 229.48 210.20 222.49&#10;  Q 207.82 218.39 205.59 212.11&#10;  Q 201.26 199.95 200.09 197.00&#10;  Q 199.64 195.89 199.62 195.21&#10;  Q 199.57 194.13 200.59 194.48&#10;  Q 214.19 199.14 224.67 202.13&#10;  Q 228.82 203.31 243.89 206.70&#10;  Q 255.79 209.37 262.91 211.75&#10;  Q 262.96 211.77 270.16 214.28&#10;  Q 276.36 216.44 282.59 217.33&#10;  Q 290.46 218.44 296.00 220.03&#10;  Q 307.53 223.32 311.61 224.30&#10;  Q 326.44 227.85 327.63 228.13&#10;  Q 336.14 230.19 343.63 231.33&#10;  Q 375.19 236.13 406.22 233.86&#10;  Q 408.87 233.67 406.67 235.18&#10;  Q 392.83 244.66 376.57 252.76&#10;  Q 374.37 253.86 370.69 255.32&#10;  C 367.93 256.43 365.50 257.68 362.77 258.42&#10;  Q 358.88 259.48 353.78 261.44&#10;  C 347.65 263.79 342.82 264.94 335.59 267.21&#10;  Q 332.57 268.16 326.12 269.20&#10;  Q 315.68 270.90 307.83 272.10&#10;  Q 305.13 272.51 300.21 272.71&#10;  Q 294.29 272.94 292.54 272.95&#10;  Q 284.24 272.97 275.73 269.87&#10;  Z"/>
<path fill="#282828" d="&#10;  M 402.47 205.16&#10;  Q 402.98 204.40 402.18 203.32&#10;  Q 401.02 201.75 399.82 201.21&#10;  Q 400.04 198.83 401.17 197.89&#10;  Q 401.61 197.53 402.01 197.94&#10;  Q 403.70 199.65 403.35 202.21&#10;  Q 403.27 202.82 403.71 203.24&#10;  L 404.81 204.29&#10;  Q 405.20 204.67 404.73 204.93&#10;  Q 403.81 205.45 402.47 205.16&#10;  Z"/>
<path fill="#939b9f" d="&#10;  M 268.22 204.00&#10;  L 268.28 204.40&#10;  L 265.49 204.49&#10;  Q 264.72 204.51 265.43 204.20&#10;  Q 266.69 203.64 268.22 204.00&#10;  Z"/>
<ellipse fill="#939b9f" cx="0.00" cy="0.00" transform="translate(159.22,319.17) rotate(25.7)" rx="1.00" ry="0.36"/>
<path fill="#282828" d="&#10;  M 354.46 332.15&#10;  Q 354.27 332.64 354.07 332.83&#10;  Q 351.44 335.36 335.76 350.44&#10;  A 1.40 1.39 -45.1 0 1 333.82 350.45&#10;  L 316.80 334.19&#10;  A 0.62 0.62 0.0 0 1 317.17 333.12&#10;  C 318.92 332.96 320.79 332.44 322.55 332.66&#10;  Q 336.92 334.47 350.63 331.63&#10;  Q 351.48 331.45 354.08 331.55&#10;  Q 354.69 331.58 354.46 332.15&#10;  Z"/>
<path fill="#fafdbc" d="&#10;  M 511.53 386.44&#10;  Q 508.81 390.73 505.79 394.66&#10;  C 503.85 397.19 503.54 400.56 502.24 403.38&#10;  Q 497.08 414.51 494.80 421.04&#10;  Q 493.34 425.21 488.27 442.14&#10;  C 485.73 450.66 484.32 458.89 482.17 467.82&#10;  C 481.03 472.55 480.76 476.99 479.85 481.56&#10;  Q 478.97 485.97 478.32 491.87&#10;  Q 475.97 513.29 475.67 516.53&#10;  Q 474.28 531.91 471.18 542.74&#10;  Q 468.92 550.62 467.96 554.99&#10;  Q 466.95 559.57 460.82 574.42&#10;  Q 459.70 577.13 456.63 582.68&#10;  Q 454.49 586.57 452.53 591.02&#10;  Q 451.79 592.71 445.44 600.93&#10;  Q 444.67 601.92 442.12 605.57&#10;  Q 440.58 607.76 438.56 610.06&#10;  Q 428.58 621.40 416.65 631.23&#10;  Q 412.86 634.35 410.20 636.08&#10;  Q 405.18 639.32 403.59 640.73&#10;  Q 400.69 643.30 394.40 646.53&#10;  Q 390.57 648.49 385.88 651.44&#10;  C 383.00 653.24 380.57 654.30 376.99 656.14&#10;  Q 373.47 657.95 370.13 659.25&#10;  Q 362.96 662.04 355.92 665.16&#10;  Q 350.88 667.39 339.16 671.01&#10;  Q 325.78 675.14 319.54 676.62&#10;  Q 316.08 677.44 313.78 678.21&#10;  Q 310.23 679.39 308.05 679.85&#10;  Q 295.64 682.44 279.09 685.15&#10;  Q 266.04 687.29 257.87 687.86&#10;  C 256.10 687.98 254.33 688.57 252.44 688.68&#10;  Q 248.64 688.90 248.56 688.91&#10;  Q 237.70 690.08 236.00 690.16&#10;  Q 225.72 690.67 215.45 691.17&#10;  Q 209.56 691.45 197.54 691.58&#10;  Q 188.61 691.68 179.65 692.22&#10;  Q 157.76 692.05 135.76 691.68&#10;  Q 126.43 691.53 116.76 691.00&#10;  Q 107.26 690.48 97.75 689.96&#10;  Q 92.98 689.69 85.77 692.03&#10;  Q 84.29 692.33 82.71 692.02&#10;  Q 80.47 691.58 82.73 691.26&#10;  C 83.94 691.09 85.88 690.47 87.26 689.60&#10;  C 90.30 687.70 92.54 686.73 94.96 684.42&#10;  C 97.31 682.18 101.38 680.55 103.56 678.37&#10;  Q 106.43 675.50 108.68 671.69&#10;  C 110.37 668.84 113.76 665.84 115.59 662.36&#10;  C 117.55 658.64 119.18 655.93 120.59 652.15&#10;  Q 123.31 644.84 126.89 636.97&#10;  C 127.98 634.57 128.86 631.74 129.37 629.61&#10;  Q 132.80 615.25 133.30 613.20&#10;  Q 135.71 603.32 136.84 596.72&#10;  Q 140.12 577.60 141.32 560.75&#10;  Q 141.66 556.03 141.93 544.77&#10;  Q 142.29 529.66 142.30 528.77&#10;  Q 142.46 515.46 141.66 496.12&#10;  Q 141.26 486.52 139.91 478.26&#10;  Q 138.85 471.79 137.71 460.44&#10;  C 137.18 455.09 135.17 448.55 134.60 443.71&#10;  Q 134.14 439.80 133.24 436.89&#10;  Q 132.52 434.56 131.73 429.91&#10;  Q 131.46 428.28 133.09 428.02&#10;  Q 143.14 426.42 151.08 418.51&#10;  Q 153.57 416.03 154.60 412.31&#10;  Q 156.54 405.32 156.65 403.14&#10;  C 156.97 397.33 156.82 393.48 159.27 389.05&#10;  C 161.40 385.18 166.18 384.65 168.13 380.19&#10;  Q 169.74 376.52 172.58 370.87&#10;  C 174.29 367.48 175.37 364.11 175.59 360.82&#10;  C 175.80 357.63 176.36 355.18 176.15 352.06&#10;  Q 175.71 345.65 175.39 342.87&#10;  Q 175.29 341.99 176.13 342.26&#10;  Q 182.83 344.42 190.13 344.88&#10;  Q 205.42 345.86 214.53 346.52&#10;  Q 227.29 347.44 234.49 347.78&#10;  Q 259.47 348.98 285.20 350.90&#10;  Q 292.64 351.46 301.84 351.89&#10;  Q 311.33 352.34 318.50 352.74&#10;  C 320.69 352.87 321.39 352.77 322.58 354.41&#10;  C 324.20 356.62 326.55 358.54 328.34 361.17&#10;  Q 332.71 367.61 337.94 373.11&#10;  Q 338.28 373.46 338.68 373.17&#10;  Q 340.94 371.46 342.34 369.53&#10;  Q 343.98 367.27 345.73 366.03&#10;  Q 348.43 364.13 351.33 360.34&#10;  Q 352.27 359.11 358.83 353.64&#10;  Q 359.21 353.32 359.72 353.32&#10;  Q 373.05 353.31 378.91 353.11&#10;  Q 388.20 352.79 398.09 352.74&#10;  Q 427.95 352.59 458.55 351.48&#10;  Q 465.33 351.23 478.46 350.37&#10;  Q 492.20 349.47 498.37 349.38&#10;  Q 499.41 349.37 499.36 350.41&#10;  Q 499.15 355.52 500.01 363.80&#10;  Q 500.44 367.90 501.99 370.85&#10;  Q 502.84 372.45 503.61 375.53&#10;  C 504.60 379.54 508.45 383.73 511.53 386.44&#10;  Z"/>
<path fill="#fe7325" d="&#10;  M 518.25 410.18&#10;  Q 516.54 416.44 514.55 422.31&#10;  Q 513.64 424.99 511.78 434.07&#10;  Q 510.59 439.86 510.31 446.03&#10;  Q 509.33 467.47 511.86 488.43&#10;  Q 513.74 504.04 514.12 507.05&#10;  Q 515.15 515.12 517.28 525.51&#10;  Q 518.11 529.54 520.15 534.46&#10;  Q 520.81 536.05 523.49 543.28&#10;  Q 524.72 546.60 527.99 553.57&#10;  Q 529.94 557.70 533.78 563.07&#10;  Q 545.29 579.15 547.70 582.17&#10;  Q 550.36 585.51 551.07 586.48&#10;  Q 552.48 588.39 553.26 591.06&#10;  Q 553.77 592.80 555.15 596.29&#10;  C 556.47 599.64 557.52 604.75 557.53 607.50&#10;  Q 557.53 608.82 556.74 614.66&#10;  Q 556.27 618.17 555.26 621.70&#10;  Q 552.20 632.38 550.76 636.51&#10;  A 0.53 0.53 0.0 0 0 551.04 637.17&#10;  Q 554.40 638.72 557.39 639.95&#10;  Q 564.70 642.96 576.25 646.57&#10;  A 1.44 1.44 0.0 0 1 577.04 648.72&#10;  Q 575.90 650.50 573.44 651.71&#10;  Q 565.21 655.77 555.64 657.30&#10;  Q 554.60 657.47 548.78 658.00&#10;  Q 544.70 658.38 541.97 658.88&#10;  Q 535.44 660.10 526.67 661.22&#10;  Q 517.79 662.36 511.38 663.51&#10;  Q 502.38 665.11 493.40 666.09&#10;  C 490.11 666.45 486.75 667.38 482.83 668.11&#10;  C 475.88 669.41 469.31 671.55 463.28 672.78&#10;  Q 460.22 673.41 451.71 676.01&#10;  Q 443.67 678.47 434.76 680.21&#10;  Q 429.73 681.19 427.56 681.68&#10;  Q 423.01 682.70 420.39 683.10&#10;  Q 406.13 685.31 388.37 688.54&#10;  Q 377.02 690.60 368.63 691.82&#10;  Q 362.91 692.65 346.46 694.91&#10;  Q 346.40 694.92 339.53 695.50&#10;  Q 336.35 695.77 332.03 696.59&#10;  Q 329.35 697.09 310.53 698.84&#10;  Q 302.51 699.58 296.53 700.43&#10;  Q 288.32 701.59 282.50 701.80&#10;  Q 278.46 701.94 270.72 702.33&#10;  Q 258.94 702.92 245.35 702.73&#10;  Q 241.09 702.67 236.19 702.21&#10;  Q 234.22 702.03 227.03 701.58&#10;  Q 218.96 701.07 213.28 700.35&#10;  Q 198.46 698.46 183.63 696.69&#10;  Q 183.12 696.63 182.80 696.23&#10;  L 179.65 692.22&#10;  Q 188.61 691.68 197.54 691.58&#10;  Q 209.56 691.45 215.45 691.17&#10;  Q 225.72 690.67 236.00 690.16&#10;  Q 237.70 690.08 248.56 688.91&#10;  Q 248.64 688.90 252.44 688.68&#10;  C 254.33 688.57 256.10 687.98 257.87 687.86&#10;  Q 266.04 687.29 279.09 685.15&#10;  Q 295.64 682.44 308.05 679.85&#10;  Q 310.23 679.39 313.78 678.21&#10;  Q 316.08 677.44 319.54 676.62&#10;  Q 325.78 675.14 339.16 671.01&#10;  Q 350.88 667.39 355.92 665.16&#10;  Q 362.96 662.04 370.13 659.25&#10;  Q 373.47 657.95 376.99 656.14&#10;  C 380.57 654.30 383.00 653.24 385.88 651.44&#10;  Q 390.57 648.49 394.40 646.53&#10;  Q 400.69 643.30 403.59 640.73&#10;  Q 405.18 639.32 410.20 636.08&#10;  Q 412.86 634.35 416.65 631.23&#10;  Q 428.58 621.40 438.56 610.06&#10;  Q 440.58 607.76 442.12 605.57&#10;  Q 444.67 601.92 445.44 600.93&#10;  Q 451.79 592.71 452.53 591.02&#10;  Q 454.49 586.57 456.63 582.68&#10;  Q 459.70 577.13 460.82 574.42&#10;  Q 466.95 559.57 467.96 554.99&#10;  Q 468.92 550.62 471.18 542.74&#10;  Q 474.28 531.91 475.67 516.53&#10;  Q 475.97 513.29 478.32 491.87&#10;  Q 478.97 485.97 479.85 481.56&#10;  C 480.76 476.99 481.03 472.55 482.17 467.82&#10;  C 484.32 458.89 485.73 450.66 488.27 442.14&#10;  Q 493.34 425.21 494.80 421.04&#10;  Q 497.08 414.51 502.24 403.38&#10;  C 503.54 400.56 503.85 397.19 505.79 394.66&#10;  Q 508.81 390.73 511.53 386.44&#10;  Q 514.15 388.25 516.61 390.39&#10;  Q 517.79 391.41 517.94 393.01&#10;  Q 518.16 395.50 518.10 398.00&#10;  Q 517.95 404.23 518.25 410.18&#10;  Z"/>
<path fill="#ef4415" d="&#10;  M 85.77 692.03&#10;  Q 92.98 689.69 97.75 689.96&#10;  Q 107.26 690.48 116.76 691.00&#10;  Q 126.43 691.53 135.76 691.68&#10;  Q 157.76 692.05 179.65 692.22&#10;  L 182.80 696.23&#10;  Q 183.12 696.63 183.63 696.69&#10;  Q 198.46 698.46 213.28 700.35&#10;  Q 218.96 701.07 227.03 701.58&#10;  Q 234.22 702.03 236.19 702.21&#10;  Q 241.09 702.67 245.35 702.73&#10;  Q 258.94 702.92 270.72 702.33&#10;  Q 278.46 701.94 282.50 701.80&#10;  Q 288.32 701.59 296.53 700.43&#10;  Q 302.51 699.58 310.53 698.84&#10;  Q 329.35 697.09 332.03 696.59&#10;  Q 336.35 695.77 339.53 695.50&#10;  Q 346.40 694.92 346.46 694.91&#10;  Q 362.91 692.65 368.63 691.82&#10;  Q 377.02 690.60 388.37 688.54&#10;  Q 406.13 685.31 420.39 683.10&#10;  Q 423.01 682.70 427.56 681.68&#10;  Q 429.73 681.19 434.76 680.21&#10;  Q 443.67 678.47 451.71 676.01&#10;  Q 460.22 673.41 463.28 672.78&#10;  C 469.31 671.55 475.88 669.41 482.83 668.11&#10;  C 486.75 667.38 490.11 666.45 493.40 666.09&#10;  Q 502.38 665.11 511.38 663.51&#10;  Q 517.79 662.36 526.67 661.22&#10;  Q 535.44 660.10 541.97 658.88&#10;  Q 544.70 658.38 548.78 658.00&#10;  Q 554.60 657.47 555.64 657.30&#10;  Q 565.21 655.77 573.44 651.71&#10;  Q 575.90 650.50 577.04 648.72&#10;  A 1.44 1.44 0.0 0 0 576.25 646.57&#10;  Q 564.70 642.96 557.39 639.95&#10;  Q 554.40 638.72 551.04 637.17&#10;  A 0.53 0.53 0.0 0 1 550.76 636.51&#10;  Q 552.20 632.38 555.26 621.70&#10;  Q 556.27 618.17 556.74 614.66&#10;  Q 557.53 608.82 557.53 607.50&#10;  C 557.52 604.75 556.47 599.64 555.15 596.29&#10;  Q 553.77 592.80 553.26 591.06&#10;  Q 552.48 588.39 551.07 586.48&#10;  Q 550.36 585.51 547.70 582.17&#10;  Q 545.29 579.15 533.78 563.07&#10;  Q 529.94 557.70 527.99 553.57&#10;  Q 524.72 546.60 523.49 543.28&#10;  Q 520.81 536.05 520.15 534.46&#10;  Q 518.11 529.54 517.28 525.51&#10;  Q 515.15 515.12 514.12 507.05&#10;  Q 513.74 504.04 511.86 488.43&#10;  Q 509.33 467.47 510.31 446.03&#10;  Q 510.59 439.86 511.78 434.07&#10;  Q 513.64 424.99 514.55 422.31&#10;  Q 516.54 416.44 518.25 410.18&#10;  Q 519.30 415.18 520.67 417.07&#10;  Q 524.58 422.49 529.05 426.23&#10;  Q 532.94 429.48 539.72 430.76&#10;  Q 540.23 430.85 540.15 431.37&#10;  Q 538.31 442.40 537.56 446.33&#10;  Q 536.04 454.30 535.62 461.34&#10;  Q 534.07 487.12 536.89 505.07&#10;  Q 540.50 528.04 541.82 534.18&#10;  Q 542.34 536.56 544.40 543.85&#10;  Q 545.52 547.82 551.27 561.50&#10;  Q 554.83 569.96 558.29 575.82&#10;  Q 559.81 578.38 566.50 589.54&#10;  Q 569.63 594.77 572.87 598.28&#10;  C 576.00 601.67 578.12 605.63 581.87 608.95&#10;  Q 584.16 610.98 589.45 616.25&#10;  Q 593.66 620.45 597.17 622.69&#10;  Q 601.53 625.45 610.94 631.90&#10;  C 612.87 633.22 615.82 634.35 618.15 635.68&#10;  A 0.51 0.50 47.2 0 1 618.12 636.57&#10;  Q 611.09 639.92 603.43 643.19&#10;  C 601.17 644.16 598.12 644.80 596.06 645.56&#10;  Q 578.69 651.96 564.51 657.57&#10;  Q 563.20 658.08 561.62 658.49&#10;  Q 561.24 658.58 558.67 659.24&#10;  Q 549.92 661.49 534.45 667.33&#10;  C 530.42 668.86 526.90 669.64 522.85 670.52&#10;  C 519.14 671.33 513.67 673.46 508.87 674.64&#10;  Q 505.42 675.49 503.25 676.18&#10;  Q 484.10 682.23 479.68 683.18&#10;  Q 463.36 686.67 448.18 690.67&#10;  Q 436.73 693.69 428.72 695.18&#10;  Q 415.89 697.55 399.01 700.47&#10;  Q 391.29 701.80 386.19 702.30&#10;  Q 378.93 703.01 373.37 704.02&#10;  Q 364.65 705.62 357.75 706.19&#10;  Q 317.62 709.53 310.00 709.59&#10;  Q 289.40 709.76 273.28 709.56&#10;  C 268.92 709.50 264.12 709.05 260.26 708.98&#10;  Q 245.97 708.74 231.22 707.59&#10;  Q 221.34 706.82 211.26 706.27&#10;  Q 189.68 705.11 168.23 702.37&#10;  Q 144.13 699.29 122.21 697.27&#10;  Q 115.39 696.64 106.42 695.35&#10;  Q 98.10 694.15 90.57 693.31&#10;  Q 88.35 693.06 85.77 692.03&#10;  Z"/>
<path fill="#ab551f" d="&#10;  M 36.19 617.70&#10;  Q 36.36 620.79 36.54 623.55&#10;  Q 36.67 625.66 36.12 627.80&#10;  Q 35.44 630.46 35.34 632.04&#10;  Q 34.47 646.32 40.15 659.50&#10;  Q 42.19 664.24 45.40 668.13&#10;  Q 46.46 669.40 50.42 672.65&#10;  Q 52.72 674.54 55.23 677.10&#10;  Q 59.53 681.51 63.99 686.37&#10;  Q 56.13 686.71 51.72 685.55&#10;  Q 40.85 682.66 37.65 680.86&#10;  Q 32.03 677.69 28.49 672.12&#10;  Q 26.87 669.57 25.76 668.26&#10;  Q 24.26 666.47 23.01 664.03&#10;  Q 18.50 655.19 17.82 651.47&#10;  Q 14.08 630.96 14.94 612.62&#10;  Q 15.21 606.82 17.02 593.89&#10;  Q 18.39 584.11 21.35 576.19&#10;  Q 24.93 566.62 28.85 559.55&#10;  Q 30.74 556.14 31.86 553.82&#10;  Q 33.98 549.43 35.23 548.23&#10;  Q 40.68 543.05 44.76 537.77&#10;  Q 45.68 536.59 49.69 534.19&#10;  Q 53.21 532.08 61.32 529.71&#10;  Q 67.59 527.88 72.46 528.97&#10;  Q 79.37 530.52 83.86 533.89&#10;  Q 90.32 538.74 94.42 548.73&#10;  Q 95.73 551.92 97.92 560.64&#10;  Q 103.14 581.45 94.91 601.67&#10;  C 93.43 605.30 91.54 608.55 88.73 611.28&#10;  C 86.69 613.25 84.42 616.46 81.92 618.40&#10;  Q 77.71 621.67 70.54 623.28&#10;  Q 65.16 624.48 62.04 620.38&#10;  Q 56.44 613.01 55.16 604.05&#10;  Q 54.69 600.78 55.27 597.52&#10;  Q 55.70 595.11 58.03 591.96&#10;  Q 60.55 588.55 65.07 579.85&#10;  Q 66.93 576.29 67.01 572.22&#10;  Q 67.06 569.47 64.37 568.65&#10;  Q 60.23 567.37 56.51 570.30&#10;  Q 50.63 574.91 44.60 582.62&#10;  C 42.48 585.33 41.15 589.37 39.84 591.82&#10;  Q 38.16 594.94 36.64 598.13&#10;  Q 34.98 601.63 34.99 605.50&#10;  Q 35.00 612.02 36.19 617.70&#10;  Z"/>
<path fill="#ab551f" d="&#10;  M 131.19 548.25&#10;  Q 126.16 545.13 122.33 550.30&#10;  Q 119.50 554.14 117.96 556.96&#10;  Q 116.67 559.34 116.98 560.80&#10;  Q 118.68 568.78 119.26 571.98&#10;  Q 119.69 574.29 119.15 577.18&#10;  Q 118.32 581.67 117.97 586.23&#10;  Q 117.79 588.49 114.22 600.65&#10;  C 113.31 603.74 112.11 605.70 110.23 609.42&#10;  Q 110.20 609.48 108.42 613.98&#10;  Q 107.30 616.84 105.04 618.41&#10;  Q 106.85 614.54 107.16 613.42&#10;  Q 108.78 607.60 113.48 588.27&#10;  Q 116.07 577.62 113.97 566.01&#10;  Q 113.32 562.40 110.79 555.52&#10;  Q 108.16 548.41 107.08 545.12&#10;  Q 105.22 539.53 100.06 533.03&#10;  Q 99.72 532.60 100.25 532.72&#10;  Q 104.69 533.70 104.93 533.75&#10;  Q 107.76 534.31 109.56 534.87&#10;  Q 120.10 538.11 130.50 540.85&#10;  Q 131.40 541.08 131.38 542.01&#10;  L 131.19 548.25&#10;  Z"/>
<path fill="#ef4415" d="&#10;  M 131.19 548.25&#10;  C 130.34 553.30 130.52 558.11 130.33 563.34&#10;  Q 130.15 568.30 129.43 572.65&#10;  Q 128.73 576.78 128.34 581.69&#10;  Q 128.01 585.67 126.89 590.65&#10;  Q 122.80 608.68 116.73 626.49&#10;  Q 115.09 631.31 112.47 636.12&#10;  Q 109.70 641.20 107.91 645.67&#10;  Q 104.59 653.94 101.99 658.98&#10;  Q 99.34 664.14 94.15 668.64&#10;  Q 92.78 663.04 92.78 657.22&#10;  Q 92.77 644.97 92.30 632.36&#10;  Q 92.74 631.85 93.51 631.03&#10;  Q 94.14 630.37 94.60 629.61&#10;  Q 98.40 623.35 100.61 621.86&#10;  Q 102.98 620.27 105.04 618.41&#10;  Q 107.30 616.84 108.42 613.98&#10;  Q 110.20 609.48 110.23 609.42&#10;  C 112.11 605.70 113.31 603.74 114.22 600.65&#10;  Q 117.79 588.49 117.97 586.23&#10;  Q 118.32 581.67 119.15 577.18&#10;  Q 119.69 574.29 119.26 571.98&#10;  Q 118.68 568.78 116.98 560.80&#10;  Q 116.67 559.34 117.96 556.96&#10;  Q 119.50 554.14 122.33 550.30&#10;  Q 126.16 545.13 131.19 548.25&#10;  Z"/>
<path fill="#fe7325" d="&#10;  M 36.19 617.70&#10;  Q 37.37 620.37 38.49 622.64&#10;  Q 39.54 624.76 41.39 627.10&#10;  C 42.91 629.03 44.26 631.11 45.90 632.65&#10;  Q 57.46 643.49 73.57 639.89&#10;  Q 75.90 639.37 81.54 636.96&#10;  Q 86.55 634.83 92.30 632.36&#10;  Q 92.77 644.97 92.78 657.22&#10;  Q 92.78 663.04 94.15 668.64&#10;  Q 91.43 671.36 88.09 673.86&#10;  Q 86.08 675.36 83.81 677.57&#10;  Q 81.27 680.04 79.22 680.99&#10;  Q 74.11 683.34 63.99 686.37&#10;  Q 59.53 681.51 55.23 677.10&#10;  Q 52.72 674.54 50.42 672.65&#10;  Q 46.46 669.40 45.40 668.13&#10;  Q 42.19 664.24 40.15 659.50&#10;  Q 34.47 646.32 35.34 632.04&#10;  Q 35.44 630.46 36.12 627.80&#10;  Q 36.67 625.66 36.54 623.55&#10;  Q 36.36 620.79 36.19 617.70&#10;  Z"/>
</svg>